<svg xmlns="http://www.w3.org/2000/svg" xml:space="preserve" id="Layer_1" x="0" y="0" viewBox="0 0 262 152"><style>.st0{fill:#d18000}.st1{fill:#722b03}.st4{fill:#fff2b2}.st5{fill:#e4bc07}.st6{fill:#002140}.st7{fill:none;stroke:#002140;stroke-linecap:round;stroke-linejoin:round}</style><path d="M152.957 142.282h-6.556l-5.242-1.416-139.552 1.416V5.848h151.35z" class="st0"/><path d="m152.801 142.106-11.139-1.298-.474 1.298H14.495V18.058H152.8z" class="st1"/><path d="M81.263 132.666c26.026 0 47.125-21.021 47.125-46.952s-21.099-46.952-47.125-46.952c-26.027 0-47.125 21.021-47.125 46.952s21.098 46.952 47.125 46.952" style="fill:#003c73"/><path d="m123.737 106.802-3.021-4.778h-6.845l-4.356-7.52h-6.577L98.85 87.16h-6.756l-4.801-7.608h-13.51l-4.177 7.256h-6.488l-4.356 7.608h-6.756l-4.356 7.432h-6.845l-1.779 3.45s5.867 13.715 18.932 21.147 27.467 6.016 30.577 5.84 24.534-4.955 35.199-25.483z" style="fill:#fed607"/><path d="m123.737 106.802-3.022-4.776 4.887-.266zM113.871 102.026h6.044l-4.533-7.434h-5.867zM102.938 94.504h5.599l-4.088-7.253-5.601-.091zM92.094 87.16h6.132l-4.444-7.784H87.65zM82.005 79.552s-.177 1.637-2.21 2.189c-.964.269-1.982.216-2.984.187a.6.6 0 0 0-.257.027c-.129.051-.212.173-.292.288-1.203 1.757-3.319 2.853-5.454 2.829 0 0 2.398-5.651 3.954-5.651s7.244.133 7.244.133v-.002zM71.203 87.205s-.177 1.637-2.21 2.189c-.964.269-1.982.216-2.984.187a.6.6 0 0 0-.257.027c-.129.051-.212.173-.292.288-1.203 1.757-3.319 2.853-5.454 2.829 0 0 2.398-5.651 3.954-5.651s7.244.133 7.244.133v-.002zM59.708 94.754s-.177 1.637-2.21 2.189c-.964.269-1.982.216-2.984.187a.6.6 0 0 0-.257.027c-.129.051-.212.173-.292.288-1.203 1.757-3.319 2.853-5.454 2.829 0 0 2.398-5.65 3.954-5.65s7.244.133 7.244.133zM81.871 94.754s-.177 1.637-2.21 2.189c-.964.269-1.982.216-2.984.187a.6.6 0 0 0-.257.027c-.129.051-.212.173-.292.288-1.203 1.757-3.319 2.853-5.454 2.829 0 0 2.398-5.65 3.954-5.65s7.244.133 7.244.133v-.003z" class="st4"/><path d="M93.19 87.029s-.177 1.637-2.21 2.189c-.964.269-1.982.216-2.984.187a.6.6 0 0 0-.257.027c-.129.051-.212.173-.292.288-1.203 1.757-3.319 2.853-5.454 2.829l2.604-5.003s1.09-.648 1.348-.648c1.557 0 7.244.133 7.244.133zM103.56 94.578s-.177 1.637-2.211 2.189c-.964.269-1.982.216-2.984.187a.6.6 0 0 0-.257.027c-.129.051-.212.173-.292.288-1.203 1.757-3.319 2.853-5.454 2.829l2.604-5.003s1.09-.648 1.348-.648c1.556 0 7.244.133 7.244.133zM71.086 102.01s-.177 1.638-2.21 2.19c-.964.269-1.982.216-2.984.186-.086-.002-.177-.005-.257.027-.129.051-.212.173-.292.288-1.203 1.757-3.319 2.853-5.454 2.829l2.604-5.002s1.09-.648 1.348-.648c1.556 0 7.244.133 7.244.133zM93.013 102.01s-.177 1.638-2.21 2.19c-.964.269-1.982.216-2.984.186-.086-.002-.177-.005-.257.027-.129.051-.212.173-.292.288-1.203 1.757-3.319 2.853-5.454 2.829l2.604-5.002s1.09-.648 1.348-.648c1.556 0 7.244.133 7.244.133zM114.758 102.01s-.177 1.638-2.21 2.19c-.965.269-1.983.216-2.985.186-.085-.002-.177-.005-.257.027-.129.051-.212.173-.292.288-1.203 1.757-3.319 2.853-5.454 2.829l2.604-5.002s1.09-.648 1.347-.648c1.557 0 7.244.133 7.244.133zM104.093 109.56s-.177 1.637-2.21 2.189c-.964.269-1.982.216-2.984.187a.6.6 0 0 0-.257.026c-.129.051-.212.174-.292.288-1.203 1.758-3.319 2.854-5.454 2.83l2.604-5.003s1.09-.648 1.348-.648c1.556 0 7.244.133 7.244.133zM120.587 111.936a.6.6 0 0 0-.257.026c-.129.051-.212.174-.292.288-1.203 1.758-3.319 2.854-5.454 2.83l2.604-5.003s1.09-.648 1.347-.648c.656 0 2.052.024 3.445.051M115.293 116.874s-.176 1.638-2.21 2.19c-.964.269-1.982.216-2.984.186-.086-.002-.177-.005-.257.027-.129.051-.212.173-.292.288-1.203 1.757-3.319 2.853-5.454 2.829l2.603-5.002s1.091-.648 1.348-.648c1.556 0 7.244.133 7.244.133zM103.796 124.544s-.177 1.637-2.211 2.189c-.964.269-1.982.216-2.984.187a.6.6 0 0 0-.257.026c-.129.051-.212.174-.292.288-1.203 1.758-3.319 2.854-5.454 2.83l2.604-5.003s1.09-.648 1.348-.648c1.556 0 7.244.133 7.244.133zM81.989 124.544s-.177 1.637-2.21 2.189c-.964.269-1.982.216-2.984.187a.6.6 0 0 0-.257.026c-.129.051-.212.174-.292.288-1.203 1.758-3.319 2.854-5.454 2.83l2.604-5.003s1.09-.648 1.348-.648c1.556 0 7.244.133 7.244.133zM54.798 124.544c.171-.08.316-.134.391-.134 1.556 0 7.244.134 7.244.134s-.177 1.637-2.21 2.189a6.3 6.3 0 0 1-1.463.205M82.048 109.56s-.177 1.637-2.21 2.189c-.965.269-1.982.216-2.984.187a.6.6 0 0 0-.257.026c-.129.051-.212.174-.292.288-1.203 1.758-3.319 2.854-5.454 2.83l2.604-5.003s1.09-.648 1.347-.648c1.556 0 7.244.133 7.244.133zM71.383 116.816s-.177 1.637-2.21 2.189c-.964.269-1.982.216-2.984.187a.6.6 0 0 0-.257.026c-.129.051-.212.174-.292.288-1.203 1.758-3.319 2.854-5.454 2.83l2.604-5.003s1.09-.648 1.347-.648c1.557 0 7.244.133 7.244.133zM93.307 116.816s-.177 1.637-2.21 2.189c-.964.269-1.982.216-2.984.187a.6.6 0 0 0-.257.026c-.129.051-.212.174-.292.288-1.203 1.758-3.319 2.854-5.454 2.83l2.604-5.003s1.09-.648 1.347-.648c1.556 0 7.244.133 7.244.133zM60.241 109.56s-.177 1.637-2.21 2.189c-.964.269-1.982.216-2.984.187a.6.6 0 0 0-.257.026c-.129.051-.212.174-.292.288-1.203 1.758-3.319 2.854-5.454 2.83l2.604-5.003s1.09-.648 1.347-.648c1.556 0 7.244.133 7.244.133zM46.006 116.696c2.242.032 6.001.12 6.001.12s-.177 1.637-2.21 2.189a6 6 0 0 1-1.28.197M38.652 105.184c.825-1.539 1.937-3.248 2.792-3.248 1.556 0 7.244.133 7.244.133s-.177 1.637-2.21 2.189c-.964.27-1.982.216-2.984.187a.6.6 0 0 0-.257.027c-.129.05-.212.173-.292.288-.793 1.157-1.985 2.029-3.316 2.482" class="st4"/><path d="m80.939 93.797 3.689-6.637h-7.6zM91.692 101.405l3.689-6.635h-7.6zM69.738 101.229l3.689-6.637h-7.6zM58.894 108.749l3.689-6.635h-7.6zM47.961 115.829l3.689-6.637h-7.6zM69.738 115.829l3.689-6.637h-7.6zM80.759 108.749l3.689-6.635h-7.6zM103.07 108.749l3.688-6.635h-7.6zM113.914 116.359l3.689-6.637h-7.6zM91.784 116.269l3.686-6.635h-7.597zM81.027 123.261l3.689-6.637h-7.6zM58.982 123.437l3.689-6.635h-7.6zM102.804 123.437l3.689-6.635h-7.6zM92.048 131.045l3.689-6.635h-7.6zM69.915 130.781l3.689-6.637h-7.6zM188.356 27.082s-26.074-.589-43.851 21.235c-10.429 12.032-13.157 27.371-13.036 38.104.118 10.736 3.793 31.381 20.148 44.123s32 14.274 38.636 13.802c0 0 26.548.944 43.08-21.882 16.532-22.827 12.977-43.531 10.488-53.088-2.489-9.555-11.734-27.251-30.754-36.629-10.668-4.6-20.62-5.523-24.711-5.661z" class="st5"/><path d="M188.683 134.85c26.427 0 47.851-21.807 47.851-48.707s-21.424-48.707-47.851-48.707c-26.428 0-47.852 21.807-47.852 48.707s21.424 48.707 47.852 48.707" class="st0"/><path d="M188.356 124.586c20.913 0 37.867-17.231 37.867-38.488S209.269 47.61 188.356 47.61s-37.867 17.232-37.867 38.488c0 21.257 16.954 38.488 37.867 38.488" class="st5"/><path d="M188.268 114.146c15.365 0 27.82-12.662 27.82-28.283 0-15.62-12.455-28.283-27.82-28.283s-27.821 12.663-27.821 28.283 12.456 28.283 27.821 28.283" class="st0"/><path d="M188.445 97.157c6.038 0 10.932-5.149 10.932-11.501s-4.894-11.501-10.932-11.501-10.933 5.149-10.933 11.501 4.895 11.501 10.933 11.501" class="st5"/><path d="M193.157 144.408s25.954-1.771 40.176-21.944c7.999-10.795 12.444-19.819 12.8-38.224.356-18.403-11.201-36.984-22.932-45.301-11.733-8.317-27.732-15.219-49.598-9.909 0 0 8.356-6.016 21.51-6.547 13.156-.531 41.065 1.061 58.666 33.8 5.687 11.501 8.178 26.899 5.154 40.877-3.022 13.979-10.668 34.507-36.444 45.126-8.356 2.301-17.065 5.84-28.978 4.248l-.357-2.123z" class="st0"/><path d="M184.209 27.319h9.245v-5.781s-.592-1.061-4.385-1.179c-3.794-.117-4.978 1.061-4.978 1.061zM229.719 45.016l4.503-3.776s2.489-1.299 4.742 1.651c2.253 2.949 1.658 5.192.356 6.253-1.304 1.061-3.555 2.715-3.555 2.715l-6.044-6.843zM245.956 90.079s5.106.376 5.687.117 2.371-1.771 2.489-3.776-.236-4.837-1.779-5.427c-1.54-.589-6.162 0-6.162 0l-.235 9.083zM230.075 126.533l4.503 3.304s2.253 1.061 4.268-2.005c2.015-3.067 1.658-5.192.948-5.899s-4.147-2.36-4.147-2.36l-5.569 6.96zM184.327 144.111s-.357 5.662.356 6.488c.71.827 7.94.235 7.94.235s.772-.413.831-2.36-.298-4.069-.298-4.069l-8.829-.296z" class="st5"/><path d="M183.497 37.936v9.437s8.058-.472 10.429.235l.118-9.909s-6.757-.707-10.547.235z" class="st0"/><path d="m186.224 57.52.176 17.165s3.199-.885 4.622 0l.533-17.165h-5.334zM186.341 96.922v17.107s4.621.354 5.096 0l-.357-17.459s-3.08.707-4.741.355zM183.379 124.41l.117 10.147s8.415.706 10.547-.118v-10.026s-8.178.234-10.667 0zM194.995 76.514l12.918-10.736s2.962 2.595 3.198 3.539L198.55 80.17zM179.114 80.17l3.319-3.776-13.036-10.853s-3.08 2.36-3.198 3.776l12.918 10.853zM177.691 84.063h-16.949l.12 4.483h16.829zM199.616 83.946l-.118 4.365h16.829l-.118-4.365zM198.075 91.733l-2.845 3.184 12.682 10.97 3.199-3.538zM182.43 94.917l-3.437-3.184-12.917 10.616 3.319 3.658zM141.306 90.906h9.598l-.235-10.381h-9.599s-.474 8.965.236 10.381M148.417 112.495l6.638 8.022 7.584-6.254-6.518-7.784zM214.074 114.856l7.941 5.898s6.282-7.432 6.4-8.493l-7.705-5.544s-5.687 8.141-6.636 8.141zM226.638 90.789h9.481s.356-8.493-.236-10.147l-9.719.117s.474 8.965.474 10.027zM183.497 47.375l10.429.235v-9.909s-7.705-.472-10.429.235v9.439M214.312 57.52s5.688 6.371 6.636 8.259l7.466-6.371s-5.569-7.432-6.756-7.904l-7.348 6.016zM156.003 65.661l6.874-8.376-7.823-5.781s-5.808 6.133-6.517 8.493l7.466 5.661z" class="st1"/><path d="m141.544 8.445-2.845-1.179-.117-1.416 1.778.235s-.71-4.483-3.911-4.483-4.029 4.011-4.029 4.011l1.54-.117v1.771l-2.845 1.299v3.539h-7.822V24.02h7.822v11.208h-7.466V47.38h7.348v33.387l1.067-4.837s3.911-21.944 18.013-33.504c7.11-6.371 17.303-11.325 17.303-11.325l-2.489-.944-23.703-5.309.356-16.397zM131.204 92.911v25.395l-.445.886v11.237h-7.466v12.123h7.466v1.946s7.201 3.539 10.4-.088v-3.538l13.866 3.626 4.356-1.24 8.267-3.008s-12.888-4.954-21.689-15.218-12.532-22.475-13.598-29.286l-1.155-2.832zM53.962 135.648l-8.889-5.928-4.091 4.776 8.712 6.637z" class="st0"/><path d="M132.417 5.613s6.518 0 7.94.472c0 0-1.184-4.6-3.911-4.483-2.727.118-3.793 2.832-4.029 4.011M136.685 27.792l21.568 4.955 2.845 1.533 6.282-3.184-5.095-1.771-20.623-4.011-1.304 1.179zM130.995 47.376V57.64s4.977 1.061 6.992.827l2.845-5.192-.357-4.011-8.532-2.36s-.948-.355-.948.472M158.253 143.522l9.392-3.274-6.429-3.096s1.066 4.128-2.963 6.37M131.586 117.805s1.541 1.061 3.437.944c1.897-.117 5.334.589 5.926-.827 0 0-4.621-7.314-5.687-11.09 0 0-3.818-.598-3.911-1.062-.094-.464.093.467.093.467zM141.159 140.866l-10.282-2.89-.118 6.517s1.321 1.317 4.86 1.269 5.54-1.357 5.54-1.357z" class="st1"/><path d="m146.313 46.194-5.066-3.715-1.066.352-4.445 6.549.445 1.061 4.176 2.832zM131.204 81.144s-4.177-.973-6.223.176c-1.155 2.744 0 8.581 0 8.581l2.665.355 3.644-.176-.089-8.936zM141.159 118.749s-4.89 3.627-4.89 3.893c0 .267 1.868 3.008 1.868 3.008l2.933 3.982s1.423-.088 1.956-.443 3.999-3.275 3.999-3.275l-5.866-7.168z" class="st5"/><path d="m128.27 80.525 2.816.384V57.018s-12.712-22.384-38.488-27.517c0 0-38.665-8.493-60.887 27.251 0 0-10.667 19.112-6.665 38.931s18.487 34.949 31.376 40.877c12.888 5.928 27.467 5.574 31.909 5.222 4.444-.355 25.6-5.131 34.754-17.52 7.201-8.848 7.999-11.059 7.999-11.059V90.021l-2.933.267s-1.868 17.254-11.466 26.189c-9.599 8.936-17.954 15.749-38.132 15.749s-36.088-16.016-40.977-29.728c-4.889-13.715-4-28.667 3.734-41.408s23.111-23.269 41.775-22.384c18.666.885 31.199 13.005 32.798 15.043 1.599 2.035 12.591 16.133 12.385 26.779z" class="st0"/><path d="M128.091 80.88s-6.577-28.077-36.798-36.099-48.65 14.392-48.65 14.392S55.62 39 82.109 39s43.613 22.296 45.984 41.88" class="st6"/><path d="M193.422 21.445c.132 1.152.29 3.371-.11 5.496M184.268 26.941s-.482-2.728-.12-5.533M140.668 53.362s-2.499-1.213-4.567-3.155a1.04 1.04 0 0 1-.206-1.245c.594-1.133 1.993-3.499 4.406-6.011a1.06 1.06 0 0 1 1.284-.189c1.012.571 2.909 1.749 4.401 3.32M240.172 48.272c-.804.837-2.419 2.376-4.316 3.429M230.073 44.778s1.797-2.112 4.197-3.629c.188-.117.4-.171.609-.16M131.258 90.128s-2.741.48-5.559.12a1.05 1.05 0 0 1-.903-.885c-.187-1.264-.455-3.997.016-7.443a1.05 1.05 0 0 1 .924-.904c1.158-.131 3.387-.288 5.522.109M146.648 126.141s-1.913 2.011-4.396 3.389c-.41.23-.925.155-1.257-.176-.908-.904-2.757-2.941-4.439-5.989a1.05 1.05 0 0 1 .204-1.275c.852-.792 2.547-2.237 4.503-3.184M235.214 130.034a1 1 0 0 1-.408-.133c-1.01-.576-2.898-1.768-4.38-3.349M235.789 119.306s2.296 1.134 4.3 2.955M193.221 144.399s.482 2.728.121 5.534a1.045 1.045 0 0 1-.89.898c-1.27.187-4.016.454-7.477-.016a1.05 1.05 0 0 1-.908-.92c-.131-1.152-.289-3.37.11-5.496M252.227 89.941a1 1 0 0 1-.383.12c-1.157.131-3.386.288-5.521-.109M246.32 80.949s2.631-.461 5.39-.141M141.48 17.962h11.407v9.555" class="st7"/><path d="M125.836 142.362H14.507v-124.4h108.84" class="st7"/><path d="M131.277 113.282c-9.768 17.352-28.416 29.08-49.818 29.08-31.515 0-57.064-25.432-57.064-56.802s25.549-56.803 57.064-56.803c21.383 0 40.018 11.707 49.791 29.032" class="st7"/><path d="M131.249 99.653c-5.974 21.792-26.004 37.813-49.793 37.813-28.504 0-51.61-23-51.61-51.373S52.952 34.72 81.456 34.72c23.826 0 43.881 16.072 49.82 37.917M131.954 75.429c.038.176.086.411.086.411" class="st7"/><path d="M128.209 90.607c-2.405 23.59-22.42 41.995-46.75 41.995-25.954 0-46.994-20.944-46.994-46.779s21.04-46.779 46.994-46.779c24.22 0 44.162 18.24 46.718 41.675M58.725 44.858v49.373M107.08 46.629v44.592M183.957 144.653a63 63 0 0 1-2.601-.776M193.677 22.517a60 60 0 0 1 6.145-.315c33.49 0 60.641 27.888 60.641 62.288s-27.149 62.288-60.641 62.288c-2.129 0-4.235-.112-6.309-.333M169.743 30.389a59.4 59.4 0 0 1 14.094-6.003" class="st7"/><path d="M234.37 129.53c-10.727 9.467-24.89 15.222-40.415 15.222q-.297 0-.594-.003M240.904 47.074c8.556 10.312 13.692 23.496 13.692 37.861s-5.259 27.866-14 38.232M193.626 25.119h.329c15.699 0 30.005 5.885 40.774 15.539M163.876 32.984a60.8 60.8 0 0 1 19.969-7.037" class="st7"/><path d="M188.694 144.328c31.687 0 57.375-26.225 57.375-58.574s-25.688-58.573-57.375-58.573-57.375 26.224-57.375 58.573 25.688 58.574 57.375 58.574" class="st7"/><path d="M188.56 134.642c26.321 0 47.658-21.783 47.658-48.653s-21.337-48.653-47.658-48.653-47.658 21.783-47.658 48.653 21.337 48.653 47.658 48.653" class="st7"/><path d="M188.56 124.765c20.977 0 37.982-17.361 37.982-38.776s-17.005-38.776-37.982-38.776-37.982 17.361-37.982 38.776 17.005 38.776 37.982 38.776" class="st7"/><path d="M188.52 114.168c15.362 0 27.815-12.713 27.815-28.395s-12.453-28.395-27.815-28.395-27.816 12.713-27.816 28.395 12.454 28.395 27.816 28.395" class="st7"/><path d="M188.669 96.992c6.093 0 11.032-5.042 11.032-11.261s-4.939-11.261-11.032-11.261c-6.092 0-11.031 5.042-11.031 11.261s4.939 11.261 11.031 11.261M136.087 48.245l-5.006-1.44V26.749M141.465 25.181l21.919 4.579c1.446.301 2.759.8 3.889 1.448" class="st7"/><path d="M161.138 34.21c-1.299-1.016-2.979-1.787-4.91-2.192l-25.15-5.269.613-.155M130.842 138.024l22.495 6.061c3.981 1.072 7.922-1.827 7.922-5.832v-.728M130.842 118.061v20.056M131.338 117.89l-.496.171 8.305 2.099M167.748 140.301l-10.028 3.419M130.59 12.093h-7.037v11.944h7.037" class="st7"/><path d="M127.346 17.546c.981 0 1.776-.792 1.776-1.768 0-.977-.795-1.768-1.776-1.768s-1.776.792-1.776 1.768c0 .977.795 1.768 1.776 1.768M82.817 24.951c.981 0 1.776-.792 1.776-1.768s-.795-1.768-1.776-1.768-1.776.792-1.776 1.768c0 .977.795 1.768 1.776 1.768M112.915 32.061c.981 0 1.776-.792 1.776-1.768s-.795-1.768-1.776-1.768-1.776.792-1.776 1.768.795 1.768 1.776 1.768M54.672 30.149c.981 0 1.776-.792 1.776-1.768s-.795-1.768-1.776-1.768-1.776.792-1.776 1.768.795 1.768 1.776 1.768M20.149 73.701c.981 0 1.776-.791 1.776-1.768 0-.976-.795-1.768-1.776-1.768s-1.776.792-1.776 1.768.795 1.768 1.776 1.768M20.564 100.896c.981 0 1.776-.792 1.776-1.769s-.795-1.768-1.776-1.768-1.776.792-1.776 1.768c0 .977.795 1.769 1.776 1.769M30.993 126.434c.981 0 1.776-.791 1.776-1.768 0-.976-.795-1.768-1.776-1.768s-1.776.792-1.776 1.768c0 .977.795 1.768 1.776 1.768M34.312 46.274c.981 0 1.776-.792 1.776-1.768s-.795-1.768-1.776-1.768-1.776.792-1.776 1.768c0 .977.795 1.768 1.776 1.768M127.346 22.146c.981 0 1.776-.792 1.776-1.768 0-.977-.795-1.768-1.776-1.768s-1.776.791-1.776 1.768.795 1.768 1.776 1.768" class="st6"/><path d="M131.08 35.333h-7.289v11.944h7.319" class="st7"/><path d="M127.745 40.743c.981 0 1.776-.792 1.776-1.768s-.795-1.768-1.776-1.768-1.776.792-1.776 1.768c0 .977.795 1.768 1.776 1.768M127.745 45.343c.981 0 1.776-.792 1.776-1.768s-.795-1.768-1.776-1.768-1.776.792-1.776 1.768c0 .977.795 1.768 1.776 1.768" class="st6"/><path d="M130.591 130.405h-7.29v11.944h7.319" class="st7"/><path d="M127.258 135.816c.981 0 1.776-.792 1.776-1.768 0-.977-.795-1.768-1.776-1.768s-1.776.791-1.776 1.768c0 .976.795 1.768 1.776 1.768M45.571 135.578c.981 0 1.776-.791 1.776-1.768 0-.976-.795-1.768-1.776-1.768s-1.776.792-1.776 1.768c0 .977.796 1.768 1.776 1.768M49.303 138.469c.981 0 1.776-.792 1.776-1.768 0-.977-.795-1.768-1.776-1.768s-1.776.791-1.776 1.768c0 .976.795 1.768 1.776 1.768M127.258 140.416c.981 0 1.776-.792 1.776-1.768 0-.977-.795-1.768-1.776-1.768s-1.776.791-1.776 1.768c0 .976.795 1.768 1.776 1.768" class="st6"/><path d="M141.331 25.733c0 .896-2.31 1.621-5.155 1.621s-5.154-.725-5.154-1.621M131.019 8.778c0-.896 2.309-1.621 5.154-1.621s5.154.725 5.154 1.621M140.168 6.103c-.946-.363-2.382-.595-3.992-.595-1.423 0-2.714.181-3.646.475 0 0 .415-4.347 3.882-4.347 3.466.001 3.756 4.467 3.756 4.467M131.019 8.778v16.955M141.301 8.49v17.427M141.124 144.296c0 .896-2.309 1.621-5.154 1.621s-5.154-.725-5.154-1.621M130.813 138.117v6.179M141.111 140.952v3.442M140.792 118.224c-.911.458-2.532.765-4.378.765-2.847 0-5.154-.725-5.154-1.621M137.749 58.533q-.64.054-1.337.056c-2.848 0-5.155-.725-5.155-1.621M133.034 70.813c-1.088-.299-1.777-.736-1.777-1.227M135.086 106.872c-2.205-.184-3.829-.816-3.829-1.568M131.257 111.189v6.179M133.969 7.287V6.111M138.59 7.333V6.154M131.257 47.218v70.667M45.191 129.562l-4.243 5.198 8.61 6.365 4.369-5.328M183.524 47.424v-9.555M193.923 47.424v-9.555M156.231 65.578l-7.705-5.699M162.73 57.269l-7.707-5.699M220.921 65.6l7.378-6.112M214.505 57.482l7.381-6.112M155.146 120.458l7.377-6.114M148.73 112.338l7.38-6.112M222.006 120.701l-7.704-5.699M228.506 112.392l-7.708-5.702M183.524 134.016v-9.555M193.923 134.016v-9.555M186.277 57.599v16.899M191.255 57.599v16.899M186.277 97.002v16.899M191.255 97.002v16.899" class="st7"/><path d="M194.365 82.669h-11.911v6.195h11.911z" class="st6"/><path d="M177.745 84.055h-16.8M177.745 88.301h-16.8M215.995 84.055h-16.384M215.995 88.301h-16.384M150.811 90.632h-9.48M150.811 80.605h-9.48M235.905 90.632h-9.481M235.905 80.605h-9.481M178.937 79.791l-12.808-10.659M182.27 76.432 169.465 65.77M198.44 80.146l12.806-10.661M195.284 76.608l12.805-10.661M169.465 105.893l12.805-10.659M166.309 102.354l12.805-10.661M207.706 105.776l-12.805-10.662M211.039 102.413l-12.806-10.661M240.205 48.248c.887-.656.412-2.786-1.059-4.756-1.472-1.97-3.384-3.035-4.271-2.378s-.413 2.786 1.059 4.756 3.384 3.034 4.271 2.378M188.814 22.322c2.545 0 4.608-.445 4.608-.995 0-.549-2.063-.995-4.608-.995s-4.607.445-4.607.995 2.063.995 4.607.995M252.215 89.931c1.104-.046 1.915-2.119 1.81-4.631s-1.085-4.511-2.19-4.465-1.914 2.119-1.809 4.631 1.085 4.511 2.189 4.465M239.264 127.151c1.355-2.121 1.698-4.319.765-4.91-.932-.59-2.787.651-4.142 2.772s-1.699 4.32-.766 4.91c.932.591 2.787-.65 4.143-2.772M190.633 76.887h-3.911v3.893h3.911zM190.633 90.338h-3.911v3.893h3.911zM96.014 94.496h13.349c.147 0 .281.077.356.203l3.887 6.611a.411.411 0 0 1-.356.619H92.129a.411.411 0 0 1-.356-.619l3.887-6.611a.42.42 0 0 1 .356-.203z" class="st7"/><path d="M74.091 94.496H87.44c.147 0 .281.077.356.203l3.887 6.611a.411.411 0 0 1-.356.619h-21.12a.411.411 0 0 1-.356-.619l3.887-6.611a.42.42 0 0 1 .356-.203z" class="st7"/><path d="M52.167 94.496h13.349c.147 0 .281.077.356.203l3.887 6.611a.411.411 0 0 1-.356.619h-21.12a.411.411 0 0 1-.356-.619l3.887-6.611a.42.42 0 0 1 .356-.203zM96.014 109.36h13.349c.147 0 .281.077.356.202l3.887 6.611a.411.411 0 0 1-.356.619H92.129a.411.411 0 0 1-.356-.619l3.887-6.611a.41.41 0 0 1 .356-.202z" class="st7"/><path d="M114.903 116.792h-.82a.411.411 0 0 1-.356-.619l3.887-6.611a.41.41 0 0 1 .356-.202h2.505M74.091 109.36H87.44c.147 0 .281.077.356.202l3.887 6.611a.411.411 0 0 1-.356.619h-21.12a.411.411 0 0 1-.356-.619l3.887-6.611a.41.41 0 0 1 .356-.202z" class="st7"/><path d="M52.167 109.36h13.349c.147 0 .281.077.356.202l3.887 6.611a.411.411 0 0 1-.356.619h-21.12a.411.411 0 0 1-.356-.619l3.887-6.611a.41.41 0 0 1 .356-.202zM91.772 131.039l3.887-6.61a.42.42 0 0 1 .356-.203h10.311M69.848 131.039l3.887-6.61a.42.42 0 0 1 .356-.203H87.44c.147 0 .281.078.356.203l3.78 6.429M54.726 124.224h10.791c.147 0 .281.077.356.202l3.772 6.416" class="st7"/><path d="M40.993 109.36h2.566c.147 0 .281.077.356.202l3.887 6.611a.411.411 0 0 1-.356.619h-1.254M85.169 87.063h13.349c.147 0 .281.077.356.203l3.887 6.611a.411.411 0 0 1-.357.619h-21.12a.411.411 0 0 1-.356-.619l3.887-6.611a.42.42 0 0 1 .356-.203zM74.06 79.455h13.349c.147 0 .281.077.356.203l3.887 6.611a.411.411 0 0 1-.356.619H70.175a.411.411 0 0 1-.356-.619l3.887-6.611a.42.42 0 0 1 .356-.203z" class="st7"/><path d="M63.248 87.063h13.349c.147 0 .281.077.356.203l3.887 6.611a.411.411 0 0 1-.356.619H59.363a.411.411 0 0 1-.356-.619l3.887-6.611a.42.42 0 0 1 .356-.203zM85.169 101.928h13.349c.147 0 .281.077.356.202l3.887 6.611a.411.411 0 0 1-.357.619h-21.12a.411.411 0 0 1-.356-.619l3.887-6.611a.41.41 0 0 1 .356-.202z" class="st7"/><path d="M122.071 109.36h-18.833a.411.411 0 0 1-.356-.619l3.887-6.611a.42.42 0 0 1 .357-.202h13.349c.147 0 .281.077.356.202l1.798 3.059.809 1.427M63.248 101.928h13.349c.147 0 .281.077.356.202l3.887 6.611a.411.411 0 0 1-.356.619H59.363a.411.411 0 0 1-.356-.619l3.887-6.611a.41.41 0 0 1 .356-.202zM38.858 105.362l1.899-3.232a.41.41 0 0 1 .356-.202h13.349c.147 0 .281.077.356.202l3.887 6.611a.411.411 0 0 1-.356.619H40.996M85.169 116.792h13.349c.147 0 .281.077.356.202l3.887 6.611a.411.411 0 0 1-.357.619h-21.12a.411.411 0 0 1-.356-.619l3.887-6.611a.41.41 0 0 1 .356-.202zM106.325 124.224h.281" class="st7"/><path d="M108.385 124.224h-5.147a.411.411 0 0 1-.356-.619l3.887-6.611a.42.42 0 0 1 .357-.202h9.555M63.248 116.792h13.349c.147 0 .281.077.356.202l3.887 6.611a.411.411 0 0 1-.356.619H59.363a.411.411 0 0 1-.356-.619l3.887-6.611a.41.41 0 0 1 .356-.202zM46.461 116.792h8.002c.147 0 .281.077.356.202l3.887 6.611a.411.411 0 0 1-.356.619h-3.622M87.406 79.455h5.717c.311 0 .6.165.756.435l4.134 7.173M98.191 87.005h5.717c.311 0 .6.165.756.435l3.954 6.864M109.271 94.496h5.717c.311 0 .6.165.756.435l3.956 6.867M120.413 101.928h5.095M132.442 5.904 1.661 5.928v136.434h12.845M152.887 17.962l-.088-12.064-12.535.003" class="st7"/><path d="M74.159 84.056s.356-4.483 1.897-5.544 4.147-1.651 4.147-1.651-4.029-.235-4.86-2.36c-.83-2.123-1.658-4.011-1.658-4.011s-.236 3.421-1.897 4.483-4.742 1.888-4.742 1.888 4.621.472 5.452 2.477 1.658 4.72 1.658 4.72z" style="fill:#50eef6"/><path d="M81.837 76.69c-6.135.907-6.874 1.645-7.785 7.749-.911-6.107-1.653-6.843-7.785-7.749 6.135-.907 6.874-1.645 7.785-7.749.91 6.107 1.652 6.843 7.785 7.749" class="st7"/></svg>