<svg xmlns="http://www.w3.org/2000/svg" xml:space="preserve" id="Layer_1" x="0" y="0" viewBox="0 0 68 68"><style>.st0{fill:#ffed8f}.st1{fill:#d18000}.st2{fill:#f25730}.st4{fill:#0164bf}.st5{fill:none;stroke:#002140;stroke-linecap:round;stroke-linejoin:round}</style><path d="m16.9 15.3-.2-4.1s-.5-1.4-1.9-1.4-3 .4-3 1.6v38.4H7.4v8.3h53.4V50H17z" class="st0"/><path d="M51.2 53.1V11.6s.8-1.8 2.7-1.8 2.6 1.6 2.6 1.6l.1 41.8z" class="st0"/><path d="M11.2 49.6H7.1v3.9h4.1zM51 49.8H16.7v3.3h34.2v-3.3zM60.6 49.7h-4.1v3.8h4.1zM50.7 14.6H16.9v4h33.9v-4z" class="st1"/><path d="M20.4 29c2 0 3.6-1.6 3.6-3.7 0-2-1.5-3.7-3.6-3.7-2 0-3.6 1.6-3.6 3.7.1 2.1 1.6 3.7 3.6 3.7M28.1 29c2 0 3.6-1.6 3.6-3.7 0-2-1.5-3.7-3.6-3.7s-3.6 1.6-3.6 3.7c.1 2 1.7 3.7 3.6 3.7M35.8 28.9c2 0 3.6-1.6 3.6-3.7 0-2-1.5-3.7-3.6-3.7-2 0-3.6 1.6-3.6 3.7 0 2 1.6 3.7 3.6 3.7" class="st2"/><path d="M46.9 37.3c2 0 3.6-1.6 3.6-3.7 0-2-1.5-3.7-3.6-3.7-2 0-3.6 1.6-3.6 3.7.1 2.1 1.6 3.7 3.6 3.7" style="fill:#00b268"/><path d="M20.9 44.7c2.1 0 3.8-1.7 3.8-3.9 0-2.1-1.6-3.9-3.8-3.9-2.1 0-3.8 1.7-3.8 3.9s1.8 3.9 3.8 3.9" class="st4"/><path d="M28.5 44.5c2.1 0 3.8-1.7 3.8-3.9 0-2.1-1.6-3.9-3.8-3.9-2.1 0-3.8 1.7-3.8 3.9.1 2.2 1.8 3.9 3.8 3.9" class="st4"/><path d="M56.7 49.9h4.1v8.3H7.3v-8.3h3.9M16.9 49.9h33.8M7.6 53.6h53.2" class="st5"/><path d="M16.8 53.4V11.7c0-1-.8-1.9-1.9-1.9h-1.4c-1 0-1.9.8-1.9 1.9v41.6M56.4 53.4V11.7c0-1-.8-1.9-1.9-1.9h-1.4c-1 0-1.9.8-1.9 1.9v41.6M16.9 15h33.9M16.9 18.6h33.9M39.4 25.3h11.3M16.9 33.1h26M32.2 40.7h18.4" class="st5"/><path d="M20.4 29.1c2.1 0 3.7-1.7 3.7-3.8s-1.6-3.8-3.7-3.8-3.7 1.7-3.7 3.8 1.6 3.8 3.7 3.8M28.1 29.1c2.1 0 3.7-1.7 3.7-3.8s-1.6-3.8-3.7-3.8-3.7 1.7-3.7 3.8 1.7 3.8 3.7 3.8M35.6 29.1c2.1 0 3.7-1.7 3.7-3.8s-1.6-3.8-3.7-3.8-3.7 1.7-3.7 3.8 1.7 3.8 3.7 3.8M20.8 44.5c2.1 0 3.7-1.7 3.7-3.8s-1.6-3.8-3.7-3.8-3.7 1.7-3.7 3.8 1.7 3.8 3.7 3.8M28.5 44.5c2.1 0 3.7-1.7 3.7-3.8s-1.6-3.8-3.7-3.8-3.7 1.7-3.7 3.8 1.7 3.8 3.7 3.8M46.7 37.2c2.1 0 3.7-1.7 3.7-3.8s-1.6-3.8-3.7-3.8-3.7 1.8-3.7 3.9 1.6 3.7 3.7 3.7" class="st5"/></svg>