<svg xmlns="http://www.w3.org/2000/svg" width="48" height="48" fill="none" viewBox="0 0 48 48"><path fill="#722b03" d="m31.875 26.633 13.133-.4v-2.806H32.377L16.234 11.294 3 23.626l2.006 2.206 11.529-10.528z"/><path fill="#f25730" d="m5.74 20.852 4.279-4.01H5.607z"/><path fill="#fffaf0" d="M5.338 26.2v10.761H44.24V26.334H31.875l-15.341-11.03z"/><path fill="#f25730" d="M14.388 28.944v7.754h5.614v-7.684z"/><path fill="#ffed8f" d="M18.942 32.682a.568.568 0 1 0 0-1.136.568.568 0 0 0 0 1.136M19.377 20.25h-4.345v5.28h4.345zM12.025 28.805H7.68v5.28h4.345zM27.397 29.008H23.05v5.279h4.346z"/><path fill="#d18000" d="M41.901 29.942h-9.225v6.95H41.9z"/><path stroke="#002140" stroke-linecap="round" stroke-linejoin="round" stroke-width=".857" d="M45.102 23.33 32.4 23.297l-16.043-11.93L2.823 23.765l2.306 2.173L16.494 15.11l15.24 11.295 13.434-.133z"/><path stroke="#002140" stroke-linecap="round" stroke-linejoin="round" stroke-width=".857" d="M5.13 25.938V36.9h39.238V26.539"/><path stroke="#002140" stroke-linecap="round" stroke-linejoin="round" stroke-width=".857" d="M32.534 36.632v-6.75h9.425v6.683M32.604 32.356h9.09M32.604 34.629h9.09M14.654 36.266v-7.355h5.614v7.27"/><path stroke="#002140" stroke-linecap="round" stroke-linejoin="round" stroke-width=".857" d="M19.033 32.988a.701.701 0 1 0 0-1.403.701.701 0 0 0 0 1.403M11.95 28.745H7.604v5.415h4.346zM27.69 28.745h-4.345v5.415h4.345zM19.534 20.224H15.19v5.415h4.345zM5.598 20.858v-4.076h4.411M5.933 18.586h.8"/></svg>