<svg xmlns="http://www.w3.org/2000/svg" xml:space="preserve" id="Layer_1" x="0" y="0" viewBox="0 0 68 68"><style>.st3{fill:#fed607}.st5,.st6{fill:none;stroke:#002140;stroke-linecap:round;stroke-linejoin:round}.st6{stroke:#003c73}</style><path d="M52.266 26.492c.472.849.244 1.659-.657 2.611l.02.02-2.422 2.41c-.778.617-1.423.523-1.982 0 1.046-1.14.672-2.115-.531-3.255l-.393-.393-3.071-3.071-3.071-3.071-1.046-1.05c-1.03-1.089-1.978-.955-2.811-.09-.405-.704-.491-1.368 0-1.946l2.811-2.878c.743-.684 1.561-.684 2.265-.252q.177.108.342.252l9.892 9.892c.287.283.503.554.657.818z" style="fill:#8dc8ff"/><path d="m24.398 47.271-2.347.157c-.495.028-.849 0-1.097-.126l-.212-.169h-.004c-.212-.252-.275-.68-.244-1.368l.142-2.316c1.258 1.007 2.508 2.28 3.763 3.818z" style="fill:#002140"/><path d="m28.389 42.961 3.424-.59.059 4.227c-.393.157-.841.236-1.317.259l-6.157.413c-1.254-1.537-2.504-2.811-3.763-3.818l.377-6.137c.055-.818.153-1.238.397-1.655l4.262.57-.605 3.255 3.676-.185-.358 3.653v.008z" style="fill:#ffc68c"/><path d="M21.811 35.093 36.3 20.605c.833-.869 1.781-.999 2.811.09l1.046 1.05-14.485 14.484-4.262-.57c.107-.18.236-.353.401-.566M43.227 24.816l3.071 3.071-14.484 14.484-3.424.59-.004-.008.358-3.653z" class="st3"/><path d="m40.156 21.746 3.071 3.071-14.484 14.484-3.672.185.601-3.255zM46.691 28.28c1.203 1.14 1.581 2.115.531 3.255L32.734 46.023a2.3 2.3 0 0 1-.865.578l-.059-4.227L46.294 27.89l.393.393z" class="st3"/><path d="m41.375 15.534 4.545-4.549c.605-.547 2.048-.889 3.063-.012l7.875 7.875c.719.786.841 2.151-.012 3.059l-4.584 4.584a3.6 3.6 0 0 0-.657-.818l-9.892-9.892a2.6 2.6 0 0 0-.342-.252z" style="fill:#f9b5fe"/><path d="M21.811 35.094 36.299 20.61M36.3 18.659l2.811-2.878M32.737 46.019l14.488-14.488M49.207 31.531l2.422-2.41M39.111 20.697l1.046 1.05 3.071 3.071 3.071 3.071.393.393M51.61 25.673l-9.892-9.892M36.3 20.609c.833-.869 1.781-.999 2.811.09M47.226 31.533c1.046-1.14.672-2.115-.531-3.256" class="st5"/><path d="M47.226 31.531c.562.523 1.207.617 1.982 0M36.3 20.61c-.405-.704-.491-1.368 0-1.946M41.717 15.781a2.6 2.6 0 0 0-.342-.252c-.704-.436-1.521-.436-2.265.252M51.609 25.674c.287.283.503.554.657.818.472.849.244 1.659-.657 2.611" class="st5"/><path d="m52.262 26.496.004-.004 4.584-4.584M41.375 15.533l4.549-4.553M48.987 10.973l7.875 7.875M45.924 10.981c.605-.547 2.048-.889 3.063-.012M56.862 18.848c.72.786.841 2.151-.012 3.059M20.494 45.77l.146-2.316.373-6.137M22.051 47.431l2.347-.161 6.157-.409M21.812 35.094a5 5 0 0 0-.401.566c-.244.417-.342.837-.397 1.655M30.555 46.861c.476-.028.924-.102 1.317-.26.326-.13.617-.315.865-.574M20.742 47.137c.059.071.13.122.212.169.244.13.598.153 1.097.126" class="st5"/><path d="M20.494 45.768c-.031.684.031 1.113.244 1.36M20.636 43.453c1.258 1.007 2.508 2.28 3.763 3.818M43.227 24.816 28.743 39.301M40.157 21.746 25.672 36.23M46.298 27.887 31.814 42.371M31.814 42.371l.059 4.226M25.672 36.23l-4.262-.57M25.071 39.486l3.672-.185M28.385 42.953l.358-3.653M31.813 42.371l-3.424.59h-.016M25.672 36.23l-.601 3.255" class="st5"/><path d="m20.738 47.133.004.004.212.169 5.559 4.396M16.02 50.443l5.776 4.569M12.226 53.848l2.984 2.363M16.02 50.444c-4.686-3.841-7.25.995-3.794 3.409M21.796 55.012c5.61 4.502 10.049.468 4.718-3.31" class="st6"/></svg>