<svg xmlns="http://www.w3.org/2000/svg" viewBox="0 0 34 34"><path fill="#5be3aa" d="M7.598 24.176c-.163-.144-.516-.012-.788.296-.273.308-.361.673-.198.817s.516.012.788-.296c.273-.308.36-.673.2-.817z"/><path fill="#03d47c" d="M9.206 24.279 7.89 22.724c-1.205.709-2.093 1.666-2.64 2.793l1.316 1.556c.641-1.106 1.462-2.083 2.641-2.794m-2.397.193c.273-.308.624-.44.787-.297.162.145.073.512-.2.818-.271.308-.624.44-.787.296s-.074-.51.198-.817z"/><path stroke="#002140" stroke-linecap="round" stroke-linejoin="round" stroke-width=".499" d="M6.567 27.073c.641-1.106 1.462-2.083 2.64-2.794M5.25 25.518c.548-1.13 1.435-2.085 2.64-2.794M6.567 27.073 5.25 25.518M9.206 24.279l-1.315-1.555"/><path fill="#5be3aa" d="M8.615 18.889c.057.21-.217.468-.613.578s-.764.03-.822-.182c-.059-.208.216-.468.61-.578.397-.11.765-.03.823.18z"/><path fill="#03d47c" d="m9.23 17.398.817 1.864c-1.167.771-2.416 1.15-3.67 1.144l-.817-1.865c1.274-.09 2.514-.398 3.67-1.143m-1.228 2.07c.397-.11.67-.369.613-.579s-.426-.29-.822-.18c-.397.11-.67.368-.611.578.058.21.426.292.822.182z"/><path stroke="#002140" stroke-linecap="round" stroke-linejoin="round" stroke-width=".499" d="M5.558 18.541c1.274-.09 2.514-.398 3.67-1.143M6.377 20.408c1.254.003 2.504-.373 3.67-1.144M5.558 18.541l.82 1.866M9.23 17.398l.817 1.866"/><path fill="#5be3aa" d="M15.348 26.167c-.215-.032-.44.27-.503.676s.062.762.277.796c.215.033.44-.27.501-.676.063-.407-.062-.763-.275-.796"/><path fill="#03d47c" d="m16.755 25.38-1.948-.592c-.63 1.249-.856 2.534-.704 3.78l1.948.592c-.062-1.275.1-2.544.704-3.78m-1.911 1.463c.063-.407.286-.708.503-.676.214.033.338.39.274.796-.061.406-.286.707-.501.676-.215-.034-.34-.39-.276-.796"/><path stroke="#002140" stroke-linecap="round" stroke-linejoin="round" stroke-width=".499" d="M16.05 29.16c-.06-1.275.1-2.544.705-3.78M14.103 28.568c-.152-1.246.075-2.53.704-3.78M16.05 29.16l-1.947-.592M16.755 25.38l-1.948-.592"/><path fill="#5be3aa" d="M11.595 25.73c.155.152.05.513-.236.808-.287.295-.645.411-.801.26-.155-.152-.05-.513.236-.808.287-.294.645-.411.801-.26"/><path fill="#03d47c" d="m11.372 24.134 1.649 1.197c-.618 1.255-1.506 2.211-2.591 2.84L8.78 26.974c1.056-.72 1.97-1.613 2.591-2.84m-.013 2.406c.286-.295.391-.656.236-.808-.156-.151-.514-.035-.8.26s-.392.656-.237.807c.157.152.515.037.8-.26"/><path stroke="#002140" stroke-linecap="round" stroke-linejoin="round" stroke-width=".499" d="M8.781 26.974c1.056-.72 1.97-1.613 2.591-2.84M10.43 28.172c1.085-.63 1.973-1.585 2.59-2.84M8.781 26.975l1.649 1.197M11.372 24.134l1.648 1.197"/><path fill="#5be3aa" d="M12.067 20.792c.131.173-.025.515-.352.766-.326.252-.697.313-.829.14-.131-.172.025-.515.351-.764.327-.25.698-.313.83-.142"/><path fill="#03d47c" d="m12.08 19.179 1.457 1.423c-.795 1.152-1.812 1.968-2.976 2.435l-1.457-1.424c1.15-.56 2.183-1.31 2.976-2.434m-.363 2.377c.326-.25.483-.592.351-.766-.133-.171-.504-.11-.829.142-.326.25-.483.593-.351.764.133.173.504.11.829-.14"/><path stroke="#002140" stroke-linecap="round" stroke-linejoin="round" stroke-width=".499" d="M9.103 21.613c1.149-.56 2.183-1.31 2.975-2.434M10.56 23.037c1.165-.466 2.182-1.282 2.975-2.434M9.103 21.613l1.457 1.424M12.08 19.179l1.457 1.423"/><path fill="#5be3aa" d="M15.062 21.049c-.203-.077-.486.17-.634.554-.149.383-.102.758.101.836.203.076.486-.17.633-.555.148-.383.101-.757-.1-.835"/><path fill="#03d47c" d="m16.605 20.58-1.778-.993c-.879 1.087-1.373 2.296-1.49 3.545l1.778.992c.212-1.26.638-2.464 1.49-3.545m-2.176 1.023c.148-.383.431-.63.634-.554.204.078.249.453.1.836-.146.383-.43.63-.632.554-.203-.078-.248-.451-.102-.836"/><path stroke="#002140" stroke-linecap="round" stroke-linejoin="round" stroke-width=".499" d="M15.115 24.124c.212-1.26.638-2.464 1.49-3.545M13.337 23.13c.117-1.249.61-2.456 1.49-3.545M15.115 24.124l-1.778-.994M16.605 20.58l-1.78-.993"/><path fill="#f68dfe" d="M13.595 8.233c-1.872-.01-4.138 1.745-6.18 6.18-.44.978.053 1.345.576.414 1.508-2.228 2.912-3.675 4.06-3.237.602.26 1.02.814 1.156 1.817l.023.021a58 58 0 0 1 3.136-3.037l-.02-.023c-.725-1.648-1.677-2.191-2.753-2.135z"/><path fill="#8dc8ff" d="M20.871 21.067a59 59 0 0 0 3.039-3.137c2.329-2.612 3.734-4.845 4.398-7.04-.692.68-5.584-4.213-4.901-4.903-2.195.666-4.426 2.072-7.04 4.404a59 59 0 0 0-3.135 3.037q-.495.512-1.009 1.063l-.005.005c-.115.114-.033.396.212.809.396.664 1.222 1.665 2.327 2.847l.035.025c1.389-1.873 2.47-2.932 3.841-3.756 1.302-.703 1.91-.095 1.17 1.168-.827 1.372-1.886 2.456-3.764 3.845 1.19 1.115 2.241 1.985 2.937 2.41.423.259.713.352.828.237q.552-.516 1.069-1.014z"/><path fill="#002140" d="M10.96 16.803c-.277-.276-.572-.218-.747-.043-.55.55.615 1.965 2.69 4.04l.05.034.417-.628c-1.816-1.81-2.91-3.148-2.41-3.403M12.43 15.305l-.007.003c-.277.276-.418.798-.18 1.282q.048.097.115.19c.311.43 1.044 1.28 1.846 2.071l.069.048c.178-.254.351-.492.52-.722l-.034-.025c-1.106-1.182-1.931-2.183-2.328-2.847z"/><path fill="#0185ff" d="M10.961 16.803c-.501.254.593 1.595 2.41 3.401q.473-.705.898-1.307l-.068-.048c-.802-.79-1.535-1.642-1.846-2.071a1.3 1.3 0 0 1-.115-.19l-.022.01-1.149.168a.3.3 0 0 0-.111.035zM23.407 5.987c-.683.69 4.21 5.584 4.902 4.903.516-1.703.587-3.381.3-5.198v-.007c-1.817-.288-3.499-.216-5.202.302"/><path fill="#f68dfe" d="M18.633 14.42c-1.37.824-2.454 1.883-3.841 3.756q-.253.342-.521.723-.426.6-.9 1.309a47 47 0 0 0-.5.756c-.387.453-.119.76.388.388q.06-.042.123-.082l.638-.423a51.755 51.755 0 0 0 2.02-1.414c1.876-1.388 2.936-2.472 3.762-3.844.74-1.264.133-1.871-1.169-1.169"/><path fill="#002140" d="m13.382 21.27.015.023c2.075 2.077 3.515 3.265 4.064 2.716.177-.175.233-.47-.043-.748-.253.503-1.577-.574-3.385-2.392l-.015-.022-.638.423z"/><path fill="#0185ff" d="M17.418 23.26a.4.4 0 0 0 .035-.112L17.62 22a1 1 0 0 1-.125-.08c-.43-.31-1.397-1.158-2.186-1.961q-.596.419-1.292.888l.015.021c1.808 1.817 3.132 2.894 3.385 2.393"/><path fill="#002140" d="M15.312 19.96c.789.802 1.756 1.651 2.186 1.961a1 1 0 0 0 .124.08c.505.285 1.06.143 1.35-.146l.006-.01c-.696-.427-1.745-1.296-2.937-2.411q-.345.254-.728.526z"/><path fill="#f68dfe" d="M23.91 17.93a59 59 0 0 1-3.039 3.137c1.002.138 1.557.555 1.817 1.157.438 1.15-1.008 2.553-3.237 4.061-.93.523-.565 1.016.413.576 4.434-2.043 6.19-4.309 6.18-6.18.055-1.077-.488-2.028-2.134-2.752z"/><path stroke="#fffaf0" stroke-linecap="round" stroke-linejoin="round" stroke-width="1.665" d="M22.67 7.44c-2.117.831-4.713 2.716-8.862 6.91"/><path stroke="#002140" stroke-linecap="round" stroke-linejoin="round" stroke-width=".499" d="M19.804 22.083q.552-.517 1.069-1.014a59 59 0 0 0 3.038-3.137c2.33-2.613 3.735-4.845 4.4-7.04.515-1.703.587-3.382.299-5.198M23.407 5.987c1.703-.518 3.383-.59 5.201-.302h.005M12.223 14.492q.515-.55 1.009-1.062c1.11-1.15 2.15-2.16 3.135-3.037 2.614-2.331 4.845-3.737 7.04-4.404M17.498 21.921q.06.045.125.08c.504.285 1.058.143 1.348-.146M12.356 16.781a1.3 1.3 0 0 1-.115-.19c-.238-.486-.096-1.005.18-1.281M17.621 22.001l-.168 1.147M14.033 20.87c1.808 1.816 3.132 2.893 3.385 2.392a.4.4 0 0 0 .035-.112M13.397 21.294c2.074 2.076 3.515 3.264 4.064 2.715"/><path stroke="#002140" stroke-linecap="round" stroke-linejoin="round" stroke-width=".499" d="M17.461 24.01c.177-.176.233-.47-.043-.748h-.002M12.221 16.602l-1.149.168M13.372 20.206c-1.817-1.808-2.91-3.148-2.41-3.401a.4.4 0 0 1 .112-.035M12.906 20.802c-2.077-2.074-3.24-3.491-2.691-4.04"/><path stroke="#002140" stroke-linecap="round" stroke-linejoin="round" stroke-width=".499" d="M10.213 16.761c.175-.176.47-.235.748.044h.002M13.259 21.352c-.507.371-.775.065-.388-.388M13.259 21.351l.123-.081.637-.423a79 79 0 0 0 1.293-.888q.381-.271.727-.526c1.877-1.388 2.937-2.472 3.763-3.844M12.87 20.962q.043-.066.086-.128.213-.326.416-.628a58 58 0 0 1 1.42-2.031c1.389-1.873 2.47-2.932 3.841-3.757M19.802 15.589c.741-1.264.133-1.871-1.169-1.169M19.804 22.083c-.115.115-.405.02-.828-.236-.696-.427-1.745-1.296-2.937-2.411M12.218 14.497c-.115.115-.033.396.212.81.396.664 1.222 1.664 2.327 2.846M17.498 21.921c-.43-.31-1.397-1.158-2.187-1.961M12.356 16.781c.312.43 1.044 1.28 1.847 2.072M19.45 26.285c2.229-1.508 3.675-2.912 3.238-4.06M20.87 21.067c1.002.138 1.556.554 1.816 1.157M19.864 26.863c4.433-2.043 6.19-4.309 6.18-6.18M23.91 17.93c1.646.722 2.19 1.675 2.134 2.752M19.45 26.285c-.93.523-.564 1.016.414.576M7.992 14.827c1.509-2.228 2.912-3.675 4.061-3.237"/><path stroke="#002140" stroke-linecap="round" stroke-linejoin="round" stroke-width=".499" d="M13.209 13.406c-.137-1.002-.555-1.556-1.156-1.816M7.415 14.414c2.042-4.434 4.309-6.19 6.18-6.18M16.347 10.368c-.724-1.648-1.676-2.191-2.752-2.135M7.992 14.827c-.523.93-1.015.562-.576-.413M28.31 10.89c-.692.68-5.584-4.213-4.901-4.903"/><path fill="#fffaf0" d="M25.736 17.79c.603 0 .603.575 0 .575-1.089 0-1.693.828-1.693 2.063l-.01.011c0 .733-.471.733-.471 0 0-1.326-.68-2.064-1.694-2.064-.602 0-.602-.575 0-.575l.01-.011c1.016 0 1.694-.738 1.694-2.065 0-.732.47-.732.47 0 0 1.327.678 2.065 1.692 2.065zM22.052 8.018c.752 0 .752.716 0 .716-1.36 0-2.117 1.034-2.117 2.581l-.011.015c0 .917-.59.917-.59 0 0-1.657-.847-2.58-2.116-2.58-.753 0-.753-.717 0-.717l.012-.015c1.268 0 2.116-.922 2.116-2.58 0-.918.588-.918.588 0 0 1.656.849 2.58 2.116 2.58z"/><path stroke="#002140" stroke-linecap="round" stroke-linejoin="round" stroke-width=".499" d="M17.23 8.018c1.268 0 2.116-.922 2.116-2.58M22.052 8.018c-1.267 0-2.117-.922-2.117-2.58M19.348 5.438c0-.918.587-.918.587 0M19.935 11.315c0-1.545.758-2.58 2.117-2.58M22.052 8.019c.752 0 .752.716 0 .716M17.218 8.749c1.269 0 2.116.922 2.116 2.58M19.924 11.33c0 .918-.59.918-.59 0M17.218 8.75c-.753 0-.753-.717 0-.717M21.878 17.79c1.016 0 1.694-.737 1.694-2.064M25.736 17.79c-1.015 0-1.693-.737-1.693-2.064M23.572 15.726c0-.733.47-.733.47 0M24.043 20.428c0-1.237.606-2.063 1.693-2.063M25.736 17.79c.603 0 .603.575 0 .575M21.868 18.375c1.014 0 1.694.737 1.694 2.064M24.033 20.44c0 .732-.471.732-.471 0M21.868 18.375c-.602 0-.602-.575 0-.575"/></svg>