<svg xmlns="http://www.w3.org/2000/svg" width="48" height="48" fill="none" viewBox="0 0 48 48"><path fill="#00b268" d="M36.72 3.61 5.26 13.104l6.519 5.309 1.368 11.827 4.987-5.23 7.644 6.599z"/><path fill="#085239" d="m9.044 16.24-3.621-2.493s.16 3.997-.16 4.265l3.781-1.768zM11.778 18.413l1.369 11.827L36.155 4.414l-1.206.321zM25.336 23.845s-1.047-.845-2.052-.283 0 2.374 0 2.374 1.047.683 1.892.24c.845-.442.845-1.85.16-2.334zM12.677 13.387s-1.047-.846-2.052-.283c-1.004.562 0 2.373 0 2.373s1.047.683 1.892.24c.846-.441.846-1.85.16-2.333z"/><path fill="#03d47c" d="M30.23 11.332s-3.325-1.447-6.596 2.147-4.506 6.437-3.325 9.224z"/><path fill="#085239" d="M33.018 5.863s-.537-.75-1.447-.268c-.912.481-.428 1.234-.428 1.234l1.878-.966zM34.305 6.773l-1.447 1.662s1.181.644 1.556-.268c.375-.913-.106-1.394-.106-1.394z"/><path stroke="#002e22" stroke-linecap="round" stroke-linejoin="round" stroke-width=".857" d="m16.242 27.142-1.125-10.338"/><path stroke="#008c59" stroke-linecap="round" stroke-linejoin="round" stroke-width=".857" d="M14.997 16.644s1.114-2.469-.283-4.29l15.984-5.419M20.547 22.396s2.214-1.649 5.029-.765L32.615 8.8"/><path stroke="#002140" stroke-linecap="round" stroke-linejoin="round" stroke-width=".857" d="m4.994 13.238 32.048-9.709-11.427 28.158-7.38-6.658-5.091 5.407-1.285-11.86zM18.235 25.029l18.807-21.5M11.86 18.575 37.043 3.53"/><path stroke="#002140" stroke-linecap="round" stroke-linejoin="round" stroke-width=".857" d="M4.994 13.238c1.072 2.762-.053 5.04-.053 5.04l4.09-1.906M20.354 22.574c-1.506-1.352-.49-4.942 2.27-8.015 2.62-2.92 5.869-4.324 7.48-3.305M25.512 26.068c.61-.61.556-1.653-.12-2.33-.677-.676-1.72-.73-2.33-.12s-.556 1.653.12 2.33c.677.676 1.72.73 2.33.12M34.314 6.899c.336.47.322 1.091-.06 1.475-.36.36-.94.392-1.398.109M13.109 15.025c.36-.784-.053-1.743-.922-2.143-.87-.4-1.866-.089-2.226.695s.052 1.743.921 2.143c.87.4 1.866.088 2.226-.695M31.115 6.899a1.02 1.02 0 0 1-.003-.851c.25-.543.94-.758 1.542-.481q.207.098.364.246"/><path stroke="#008c59" stroke-linecap="round" stroke-linejoin="round" stroke-width=".857" d="M12.224 32.247s-.171.395-.39 1.05M11.235 35.516c-.573 2.801-.66 6.666 2.488 8.53 7.974 4.293 19.258-10.504 28.656.342M43.107 45.283q.328.431.655.91"/></svg>