<svg xmlns="http://www.w3.org/2000/svg" xml:space="preserve" id="Layer_1" x="0" y="0" viewBox="0 0 68 68"><style>.st1{fill:#008c59}.st2{fill:#ffa75a}.st3{fill:#fff2b2}.st4{fill:none;stroke:#002140;stroke-linecap:round;stroke-linejoin:round}</style><path d="m57.9 31.4-8.1-13.7s-3.4-2.5-6.8-2.5-6.7 3.4-7.3 4.6-.6 6-.6 6l-1.4-.5-1.4.4.1-3.2s-2-7.3-7.8-7.3-8.2 3.8-8.2 3.8L9 32.4s-2.9 4.4-2.9 7.7 3.3 12.4 11.4 12.4 11.9-6.8 12.3-10.1c0 0 5.5-.6 7.3.2 0 0 2.8 10.1 12.5 9.9s11.8-11.3 11.8-11.3-.6-7-3.5-9.8" style="fill:#085239"/><path d="M17.9 52.3c6.6 0 11.9-5.3 11.9-11.9s-5.3-11.9-11.9-11.9S6 33.8 6 40.4s5.3 11.9 11.9 11.9M49 52.2c6.6 0 11.9-5.3 11.9-11.9S55.6 28.4 49 28.4s-11.9 5.3-11.9 11.9C37 46.9 42.4 52.2 49 52.2" class="st1"/><path d="M39.2 33.5v-5.7l-2.6-.8s-2-1.8-3-1.6-3.1 1.5-3.1 1.5l-2 1v5.7l1.7-.3s2.5-1.7 3.7-1.7 2.2 1 2.2 1 1.5 1.7 3.1.9M32.4 25.3s.4-9.4-6.9-10.2-10 5.2-10 5.2l-.6 1.4s3.8-2.4 8.7-2c5 .5 7.8 5.1 7.8 5.1l.3.9zM35.4 25.5s1.7-5.4 8.3-6.1c6.6-.8 8.7 3.1 8.7 3.1s-1.7-6.8-7.8-7.2-9.4 5.1-9.4 5.1-.9 4.6.2 5.1" class="st1"/><path d="M18 49.9c5 0 9-4 9-9s-4-9-9-9-9 4-9 9c-.1 4.9 4 9 9 9M49.3 49.4c5 0 9-4 9-9s-4-9-9-9-9 4-9 9c-.1 4.9 4 9 9 9" class="st2"/><path d="M16.8 31.5c-.6.4-.7 1.2-.5 1.8s.8 1.1 1.4 1.4 1.3.5 1.9.7c1.3.5 2.5 1.4 2.9 2.7.2.6.2 1.3.4 1.9.5 1.5 2.4 2.4 3.8 1.8 0 0 .9-5.8-2.6-8.2s-7.3-2.1-7.3-2.1M9.2 41c.7-.5 1.8-.4 2.5.2.7.5 1.1 1.3 1.6 2.1.4.8.9 1.6 1.6 2.1.8.6 1.9.8 2.7 1.4.9.6 1.4 1.6 1.4 2.7 0 0-4.8-.1-7.4-2.7C8.9 44 9.2 41 9.2 41M47.7 31.4c-.6.4-.7 1.2-.5 1.8s.8 1.1 1.4 1.4 1.3.5 1.9.7c1.3.5 2.5 1.4 2.9 2.7.2.6.2 1.3.4 1.9.5 1.5 2.4 2.4 3.8 1.8 0 0 .9-5.8-2.6-8.2-3.4-2.2-7.3-2.1-7.3-2.1M40.1 40.8c.7-.5 1.8-.4 2.5.2.7.5 1.1 1.3 1.6 2.1.4.8.9 1.6 1.6 2.1.8.6 1.9.8 2.7 1.4.9.6 1.4 1.6 1.4 2.7 0 0-4.8-.1-7.4-2.7-2.6-2.7-2.4-5.8-2.4-5.8" class="st3"/><path d="M18 52.3c6.6 0 12-5.4 12-12s-5.4-12-12-12-12 5.4-12 12c0 6.7 5.4 12 12 12M16.1 19.7c1.5-2.7 4.3-4.6 7.7-4.6 4.8 0 8.7 3.9 8.7 8.7 0 .7-.1 1.4-.2 2" class="st4"/><path d="M13.6 24.1c1.6-2.7 4.9-4.6 8.7-4.6 4.6 0 8.4 2.8 9.5 6.5M53.4 23.9c-1.6-2.7-4.9-4.6-8.7-4.6-4.6 0-8.4 2.8-9.5 6.5M18 49.4c5 0 9-4 9-9s-4-9-9-9-9 4-9 9c0 4.9 4 9 9 9M49.1 52.3c6.6 0 12-5.4 12-12s-5.4-12-12-12-12 5.4-12 12c0 6.7 5.4 12 12 12" class="st4"/><path d="M49.1 49.4c5 0 9-4 9-9s-4-9-9-9-9 4-9 9c-.1 4.9 4 9 9 9M29.9 42.3s3.7-1 7.1 0M28.6 27.6c2 0 2.9-2.1 5-2.1s3.2 2.2 5.4 2.2M28.5 33.8c2 0 2.9-2.1 5-2.1s3.2 2.2 5.4 2.2M8.1 33.7 16.5 19" class="st4"/><path d="M51.1 19.8c-1.5-2.7-4.3-4.6-7.7-4.6-4.8 0-8.7 3.9-8.7 8.7 0 .7.1 1.4.2 2M59.1 33.8l-8.4-14.7M28.2 33.8l.4-6.1M39.1 33.9l-.2-6.1" class="st4"/></svg>