<svg xmlns="http://www.w3.org/2000/svg" xml:space="preserve" id="Layer_1" x="0" y="0" viewBox="0 0 68 68"><style>.st0{fill:#5ab0ff}.st1{fill:#b0d9ff}.st2{fill:#003c73}.st3{fill:none;stroke:#003c73;stroke-linecap:round;stroke-linejoin:round}</style><path d="M42.092 53.935v4.182c0 1.066-.564 1.569-1.602 1.569h-9.171q-.853 0-1.264-.465l-.042-.056c-.197-.254-.291-.601-.291-1.048v-4.182c0-1.071.564-1.574 1.597-1.574h9.171c.55 0 .968.141 1.236.432v.009q.366.387.366 1.133M42.092 33.019v4.182c0 1.066-.564 1.569-1.602 1.569h-9.171q-.853 0-1.264-.465l-.042-.056c-.197-.254-.291-.601-.291-1.048v-4.182c0-1.071.564-1.574 1.597-1.574h9.171c.55 0 .968.141 1.236.432v.009q.366.387.366 1.133M42.092 12.105v4.182c0 1.067-.564 1.569-1.602 1.569h-9.171q-.853 0-1.264-.465l-.042-.056c-.197-.254-.291-.601-.291-1.048v-4.182c0-1.071.564-1.574 1.597-1.574h9.171c.55 0 .968.141 1.236.432v.009q.366.387.366 1.133" class="st0"/><path d="M12.958 49.139h-3.65q-.854 0-1.264-.465l-.042-.056c-.198-.254-.292-.602-.292-1.048v-4.182c0-1.071.564-1.574 1.597-1.574h9.171c.55 0 .968.141 1.236.432v.009q.366.386.366 1.132v4.182c0 1.067-.564 1.569-1.602 1.569zM62 22.471v4.181c0 1.067-.564 1.569-1.602 1.569h-9.171q-.853 0-1.264-.465l-.043-.056c-.197-.254-.291-.601-.291-1.048v-4.181c0-1.071.564-1.574 1.597-1.574h9.171c.55 0 .968.141 1.236.432v.009c.245.259.367.634.367 1.133M17.567 11.626a4.27 4.27 0 0 1 .85 2.57 4.303 4.303 0 0 1-4.304 4.304 4.32 4.32 0 0 1-3.045-1.259 4.3 4.3 0 0 1-1.264-3.045 4.307 4.307 0 0 1 4.304-4.304 4.29 4.29 0 0 1 3.454 1.734z" class="st1"/><path d="m56.531 55.687-5.826 4.506v-9.012zM29.722 53.936v4.181q.002.668.291 1.048l-1.071-1.372-.038-.07q-.19-.351-.188-.893v-4.182c0-1.071.564-1.574 1.597-1.574h9.171c.489 0 .874.113 1.142.348l.066.066 1.034 1.311c-.268-.291-.686-.432-1.236-.432h-9.171c-1.038 0-1.597.503-1.597 1.574zM18.478 41.809H9.307c-1.038 0-1.597.503-1.597 1.574v4.182q.002.668.291 1.048L6.929 47.24l-.038-.07q-.19-.351-.188-.893v-4.181c0-1.071.564-1.574 1.597-1.574h9.171c.489 0 .874.113 1.142.348l.066.066 1.034 1.311c-.268-.291-.686-.432-1.236-.432v-.006zM60.6 20.022l1.034 1.311c-.268-.291-.686-.432-1.236-.432h-9.171c-1.038 0-1.597.503-1.597 1.574v4.182q.002.668.291 1.048l-1.071-1.372-.038-.071q-.19-.351-.188-.893v-4.181c0-1.071.564-1.574 1.597-1.574h9.171c.489 0 .874.113 1.142.348l.066.066zM29.722 12.107v4.182q.002.668.291 1.048l-1.071-1.372-.038-.07q-.19-.351-.188-.893v-4.177c0-1.071.564-1.574 1.597-1.574h9.171c.489 0 .874.113 1.142.348l.066.066 1.034 1.311c-.268-.291-.686-.432-1.236-.432h-9.171c-1.038 0-1.597.503-1.597 1.574zM16.045 9.766l.127.127a9.5 9.5 0 0 1 1.391 1.729 4.29 4.29 0 0 0-3.449-1.729 4.307 4.307 0 0 0-4.304 4.304c0 1.189.484 2.265 1.264 3.045l-.019.019c-.667-.625-1.146-1.297-1.55-1.992a4.3 4.3 0 0 1-.705-2.36 4.31 4.31 0 0 1 4.304-4.304c1.132 0 2.166.442 2.937 1.161zM29.722 33.018V37.2q.002.668.291 1.048l-1.071-1.372-.038-.07q-.19-.351-.188-.893V31.73c0-1.071.564-1.574 1.597-1.574h9.171c.489 0 .874.113 1.142.348l.066.066 1.034 1.311c-.268-.291-.686-.432-1.236-.432h-9.171c-1.038 0-1.597.503-1.597 1.574z" class="st2"/><path d="M17.567 11.626a4.27 4.27 0 0 1 .85 2.57 4.303 4.303 0 0 1-4.304 4.304 4.32 4.32 0 0 1-3.045-1.259 4.3 4.3 0 0 1-1.264-3.045 4.307 4.307 0 0 1 4.304-4.304c1.414 0 2.664.677 3.449 1.729M31.323 10.531h9.167M31.323 17.857h9.167M42.092 12.106v4.181M29.721 12.106v4.182M29.721 12.105c0-1.071.564-1.574 1.597-1.574M41.726 10.964c-.268-.291-.686-.432-1.236-.432M42.092 12.105q-.001-.739-.362-1.132M30.06 17.391c.268.31.695.465 1.264.465M29.721 16.287q.002.668.291 1.048M42.092 16.287c0 1.067-.564 1.569-1.602 1.569" class="st3"/><path d="M9.505 15.268a4.3 4.3 0 0 1-.705-2.359 4.31 4.31 0 0 1 4.304-4.304c1.132 0 2.166.442 2.937 1.161M30.314 9.25h9.171M28.716 10.822v4.177M28.716 10.824c0-1.071.564-1.574 1.597-1.574M40.627 9.592c-.268-.23-.653-.348-1.142-.348M28.716 15c0 .362.066.658.188.893M17.567 11.626l-.005-.005a9.3 9.3 0 0 0-1.391-1.729M11.092 17.293s-.023-.024-.038-.033c-.667-.625-1.146-1.297-1.551-1.992M30.059 17.391l-.042-.056-1.076-1.372M41.731 10.974l-.005-.009-1.034-1.306M51.227 20.896h9.171M51.227 28.221h9.172M61.995 22.471v4.182M49.629 22.471v4.182M49.629 22.471c0-1.071.564-1.574 1.597-1.574M61.633 21.329c-.268-.291-.686-.432-1.236-.432M62 22.47q-.001-.738-.362-1.132M49.963 27.756c.268.31.695.465 1.264.465M49.629 26.652q.002.668.291 1.048M62 26.652c0 1.067-.564 1.569-1.602 1.569M50.216 19.613h9.172M48.619 21.188v4.182M48.619 21.187c0-1.071.564-1.574 1.597-1.574M60.529 19.957c-.268-.23-.653-.348-1.142-.348M48.619 25.369c0 .362.066.658.188.893" class="st3"/><path d="m49.962 27.756-.042-.056-1.071-1.372M61.638 21.339l-.005-.009-1.034-1.306M9.307 41.809h9.171M9.307 49.139h9.172M20.076 43.383v4.182M7.71 43.383v4.182M7.71 43.383c0-1.071.564-1.574 1.597-1.574M19.715 42.247c-.268-.291-.686-.432-1.236-.432M20.081 43.382q-.001-.739-.362-1.132M8.043 48.674c.268.31.695.465 1.264.465M7.71 47.564q.001.668.291 1.048M20.081 47.564c0 1.067-.564 1.569-1.602 1.569M8.297 40.527h9.171M6.699 42.1v4.182M6.699 42.101c0-1.071.564-1.574 1.597-1.574M18.61 40.875c-.268-.23-.653-.348-1.142-.348M6.699 46.281c0 .362.066.658.188.893M8.043 48.674l-.042-.061-1.071-1.367" class="st3"/><path d="m19.719 42.256-.005-.009-1.034-1.311M31.323 31.445h9.167M31.323 38.77h9.167M42.092 33.018V37.2M29.721 33.018V37.2M29.721 33.019c0-1.071.564-1.574 1.597-1.574M41.726 31.882c-.268-.291-.686-.432-1.236-.432M42.092 33.019q-.001-.739-.362-1.132M30.06 38.309c.268.31.695.465 1.264.465M29.721 37.199q.002.668.291 1.048M42.092 37.199c0 1.067-.564 1.569-1.602 1.569M30.314 30.162h9.171M28.716 31.736v4.182M28.716 31.736c0-1.071.564-1.574 1.597-1.574M40.627 30.504c-.268-.23-.653-.348-1.142-.348M28.716 35.918c0 .362.066.658.188.893" class="st3"/><path d="m30.059 38.309-.042-.061-1.076-1.367M41.731 31.891l-.005-.009-1.034-1.311M31.323 52.357h9.167M31.323 59.688h9.167M42.092 53.936v4.177M29.721 53.936v4.177M29.721 53.935c0-1.071.564-1.574 1.597-1.574M41.726 52.794c-.268-.291-.686-.432-1.236-.432M42.092 53.935q-.001-.739-.362-1.132M30.06 59.221c.268.31.695.465 1.264.465M29.721 58.113q.002.668.291 1.048M42.092 58.113c0 1.066-.564 1.569-1.602 1.569M30.314 51.074h9.171M28.716 52.648v4.182M28.716 52.648c0-1.071.564-1.574 1.597-1.574M40.627 51.422c-.268-.23-.653-.348-1.142-.348M28.716 56.83c0 .362.066.658.188.893" class="st3"/><path d="m30.059 59.221-.042-.061-1.076-1.367M41.731 52.803l-.005-.009-1.034-1.311M20.081 34.775h8.466M42.092 34.775h6.714M18.418 13.863h10.191M42.092 13.863h6.714M20.081 55.688h8.466M42.356 55.688h8.213M55.488 19.614c-1.052-3.261-3.28-5.751-6.676-5.751M48.807 34.775c3.674 0 5.976-2.904 6.911-6.554M13.188 40.526c1.057-3.261 3.28-5.751 6.676-5.751M19.865 55.688c-3.674 0-5.976-2.904-6.907-6.554 0-.005 0-.014-.005-.019M50.705 51.182v9.012M50.705 51.182l5.826 4.506M50.705 60.193l5.826-4.506" class="st3"/></svg>