<svg xmlns="http://www.w3.org/2000/svg" xml:space="preserve" id="Layer_1" x="0" y="0" viewBox="0 0 60 60"><style>.st0{fill:none;stroke:#ea5730;stroke-linecap:round;stroke-linejoin:round}.st1{fill:#ff7102}.st2{fill:none;stroke:#002140;stroke-linecap:round;stroke-linejoin:round}</style><path d="M24.5 8.5V7M33.2 8.5V7M24.5 8.5c0 2.1-2.7 19.1-20.4 19.1" class="st0"/><path d="M33.2 9.4s-.6 25.8-29 25.8" class="st0"/><path d="M33.2 8.5c-.1 3 2.7 19.1 20.4 19.1" class="st0"/><path d="M24.4 9.1s.5 26.1 29 26.1M46.7 34.8v6.6M50.9 35.5v6.1M42.3 33.7v7.8M37.9 41.3V32M11 34.8v6.6M6.8 35.5v6.1M15.4 33.7v7.8M19.8 41.3V32M49 34.9v-7.5M44.6 34.2V26M40.2 32.6v-9.4M36.4 30.6V18.8M8.5 35v-7.5M12.9 34.3V26M17.3 32.8v-9.7M21.2 30.9V18.5M8.6 44.8l1-2.9 1.2 3.1M6.1 44.8l1-2.9L8.4 45M4.6 41.9 5.8 45M11.2 44.8l1-2.9 1.2 3.1M18.6 44.8l1-2.9 1.2 3.1M16.2 44.8l1-2.9 1.2 3.1M13.6 44.8l1-2.9 1.2 3.1M21.4 44.8l1-2.9 1.2 3.1M28.5 44.8l1-2.9 1.2 3.1M26 44.8l1-2.9 1.2 3.1M31.2 44.8l1-2.9M38.6 44.8l1-2.9 1.2 3.1M36.2 44.8l1-2.9 1.2 3.1M34.7 41.9l1.2 3.1M41.3 44.8l1-2.9 1.2 3.1M48.7 44.8l1-2.9L51 45M46.2 44.8l1-2.9 1.2 3.1M43.7 44.8l1-2.9 1.2 3.1M51.4 44.8l1-2.9 1.2 3.1M54 44.8l1-2.9" class="st0"/><path d="M23 52.3V8.1h3v43.5l-2 .6zM31.6 51.8V8.1h3v44.1h-1.5z" class="st1"/><path d="M25.6 9.2h6.9v2.9s-4.1-.6-6.9 0zM25.6 16.4h6.9v2.9s-4.1-.6-6.9 0zM25.6 24.1h6.9V27s-4.1-.6-6.9 0zM25.6 32.6h6.9v2.9s-4.1-.6-6.9 0z" class="st1"/><path d="M4 51.4c1.4 0 1.4 1.1 2.7 1.1s1.4-1.1 2.7-1.1c1.4 0 1.4 1.1 2.7 1.1 1.4 0 1.4-1.1 2.7-1.1 1.4 0 1.4 1.1 2.7 1.1 1.4 0 1.4-1.1 2.7-1.1 1.4 0 1.4 1.1 2.7 1.1 1.4 0 1.4-1.1 2.7-1.1 1.4 0 1.4 1.1 2.7 1.1 1.4 0 1.4-1.1 2.7-1.1 1.4 0 1.4 1.1 2.7 1.1 1.4 0 1.4-1.1 2.7-1.1 1.4 0 1.4 1.1 2.7 1.1 1.4 0 1.4-1.1 2.7-1.1 1.4 0 1.4 1.1 2.7 1.1 1.4 0 1.4-1.1 2.7-1.1 1.4 0 1.4 1.1 2.7 1.1s1.4-1.1 2.7-1.1c1.4 0 1.4 1.1 2.7 1.1M34.7 41.8h20.4M26 41.8h5.3M4.6 41.8h18.2M34.8 45.1h19.1M26.2 45.1h5.1M5.8 45.1h17" class="st2"/><path d="M23 52.3V8.1h3V51M34.6 52.3V8.1h-3V51M26.3 9.2h4.8M26.3 12h4.8M26.3 16.2h4.8M26.3 19.1h4.8M26.3 24.2h4.8M26.3 26.9h4.8M26.3 32.8h4.8M26.3 35.4h4.8" class="st2"/></svg>