<svg xmlns="http://www.w3.org/2000/svg" xml:space="preserve" id="Layer_1" x="0" y="0" viewBox="0 0 164 165"><style>.st0{fill:#5be3aa}.st5,.st7{fill:none;stroke-width:2;stroke-linecap:round;stroke-linejoin:round;stroke:#002140}.st7{stroke:#4ed7de}</style><path d="M89.132 81.85v19.185c0 16.535-13.26 29.914-29.567 29.804-.339 0-.677-.013-1.015-.025-15.702-.663-28.104-14.055-28.104-30.147V80.463h57.308c.762 0 1.366.626 1.366 1.387zm-20.936 38.481c1.136 0 1.982-1.092 1.704-2.221l-4.074-16.768a9.2 9.2 0 0 0 4.569-7.978c0-5.07-4.037-9.169-9.03-9.169-.544 0-1.088.049-1.608.147-4.219.773-7.422 4.517-7.422 9.022a9.2 9.2 0 0 0 4.11 7.696l-3.626 17.111c-.23 1.117.604 2.16 1.716 2.16h13.661M86.823 75.798v4.664H70.939v-4.664c0-1.154.919-2.087 2.055-2.087h11.774c1.136 0 2.055.933 2.055 2.087" class="st0"/><path d="M84.49 73.711H73.115v-7.598c0-8.777-7.011-15.884-15.642-15.884s-15.642 7.119-15.642 15.884v7.598H30.457v-7.095c0-15.147 12.1-27.434 27.016-27.434s27.016 12.287 27.016 27.434z" style="fill:#e5fafe"/><path d="M69.9 118.122c.278 1.129-.568 2.222-1.704 2.222h-3.904c1.136 0 1.982-1.093 1.704-2.222l-4.074-16.768a9.21 9.21 0 0 0 4.581-7.978c0-4.247-2.853-7.831-6.721-8.862l-.024-.16a8.7 8.7 0 0 1 1.608-.147c4.992 0 9.03 4.112 9.03 9.169a9.23 9.23 0 0 1-4.569 7.978z" style="fill:#085239"/><path d="M66.008 118.122c.278 1.129-.568 2.222-1.704 2.222h-9.743c-1.112 0-1.946-1.056-1.716-2.161l3.626-17.111c-2.478-1.632-4.11-4.468-4.11-7.696 0-4.505 3.191-8.249 7.422-9.022l.024.16c3.868 1.031 6.721 4.615 6.721 8.862a9.21 9.21 0 0 1-4.581 7.978l4.074 16.768z" style="fill:#002e22"/><path d="M58.549 130.802v.024h-5.693c-16.21 0-29.349-13.342-29.349-29.803V81.837c0-.773.616-1.387 1.366-1.387h5.56v20.205c0 16.092 12.402 29.472 28.104 30.147z" style="fill:#008c59"/><path d="M44.02 75.798v4.664H28.137v-4.664c0-1.154.919-2.087 2.055-2.087h11.774c1.135 0 2.054.933 2.054 2.087" class="st0"/><path d="M30.554 80.463h57.212c.762 0 1.366.626 1.366 1.387v19.185c0 16.535-13.26 29.914-29.567 29.804-.339 0-.677-.013-1.015-.025-15.702-.663-28.104-14.055-28.104-30.147V80.463" class="st5"/><path d="M30.554 80.463h-5.669c-.761 0-1.366.626-1.366 1.387v19.185c0 16.461 13.14 29.804 29.349 29.804h5.693M28.137 80.463v-4.664c0-1.154.919-2.087 2.055-2.087h11.774c1.136 0 2.055.933 2.055 2.087v4.664M70.939 80.463v-4.664c0-1.154.919-2.087 2.055-2.087h11.774c1.136 0 2.055.933 2.055 2.087v4.664M30.457 73.711v-7.095c0-15.147 12.1-27.434 27.016-27.434s27.016 12.287 27.016 27.434v7.095" class="st5"/><path d="M41.832 73.711v-7.598c0-8.777 7.011-15.884 15.642-15.884s15.642 7.119 15.642 15.884v7.598M64.291 120.331h3.904c1.136 0 1.982-1.092 1.704-2.221l-4.074-16.768a9.2 9.2 0 0 0 4.569-7.978c0-5.07-4.037-9.169-9.03-9.169-.544 0-1.088.049-1.608.147-4.219.773-7.422 4.517-7.422 9.022a9.2 9.2 0 0 0 4.11 7.696l-3.626 17.111c-.23 1.117.604 2.16 1.716 2.16h9.757" class="st5"/><path d="M64.291 120.331c1.136 0 1.982-1.092 1.704-2.221l-4.074-16.768a9.21 9.21 0 0 0 4.581-7.978c0-4.247-2.853-7.831-6.721-8.862" class="st5"/><path d="M119.98 102.791c-5.561 0-10.553 2.455-13.986 6.346L68.667 94.309c-1.463-.577-3.094.025-3.88 1.338l-.048-.025-.194.516s0 .024-.012.037l-1.305 3.474v.037l-3.336 9.624 9.815 4.112 2.563-7.144v-.221l-2.768 7.365 8.752 3.461 2.768-7.365 20.537 8.814a20 20 0 0 0-.326 3.535c0 10.544 8.413 19.087 18.796 19.087 10.384 0 18.797-8.543 18.797-19.087s-8.413-19.088-18.797-19.088zm0 28.625c-5.186 0-9.392-4.272-9.392-9.538s4.206-9.538 9.392-9.538 9.392 4.272 9.392 9.538-4.206 9.538-9.392 9.538" style="stroke:#002140;stroke-width:2;stroke-linecap:round;stroke-linejoin:round;fill:#fed607"/><path d="M94.656 24.047h-.822c-1.689 0-3.058 1.39-3.058 3.106v10.176c0 1.715 1.369 3.106 3.058 3.106h.822c1.689 0 3.058-1.39 3.058-3.106V27.153c0-1.715-1.369-3.106-3.058-3.106M90.884 37.648l6.624-11.231M108.871 24.047h-.822c-1.689 0-3.058 1.39-3.058 3.106v10.176c0 1.715 1.369 3.106 3.058 3.106h.822c1.689 0 3.058-1.39 3.058-3.106V27.153c0-1.715-1.369-3.106-3.058-3.106M105.1 37.648l6.624-11.231M94.656 46.523h-.822c-1.689 0-3.058 1.39-3.058 3.105v10.176c0 1.715 1.369 3.105 3.058 3.105h.822c1.689 0 3.058-1.39 3.058-3.105V49.628c0-1.715-1.369-3.105-3.058-3.105M90.884 60.123l6.624-11.231M123.086 46.204h-.821c-1.689 0-3.059 1.39-3.059 3.105v10.176c0 1.715 1.37 3.105 3.059 3.105h.821c1.69 0 3.059-1.39 3.059-3.105V49.309c0-1.715-1.369-3.105-3.059-3.105M119.303 59.804l6.624-11.219M137.314 46.204h-.822c-1.689 0-3.058 1.39-3.058 3.105v10.176c0 1.715 1.369 3.105 3.058 3.105h.822c1.689 0 3.058-1.39 3.058-3.105V49.309c0-1.715-1.369-3.105-3.058-3.105M133.542 59.804l6.625-11.219M108.823 68.114h-.822c-1.689 0-3.058 1.39-3.058 3.106v10.176c0 1.715 1.369 3.105 3.058 3.105h.822c1.689 0 3.058-1.39 3.058-3.105V71.22c0-1.715-1.369-3.106-3.058-3.106M105.039 81.715l6.637-11.219M137.423 68.114h-.822c-1.689 0-3.059 1.39-3.059 3.106v10.176c0 1.715 1.37 3.105 3.059 3.105h.822c1.689 0 3.058-1.39 3.058-3.105V71.22c0-1.715-1.369-3.106-3.058-3.106M133.651 81.715l6.624-11.219M120.814 27.386l2.369-3.339v16.178M120.234 40.226h5.911M135.162 27.386l2.369-3.339v16.178M134.582 40.226h5.899M106.502 49.653l2.369-3.339v16.178M105.922 62.492h5.899M120.717 71.146l2.37-3.339v16.178M120.137 83.986h5.899" class="st7"/></svg>