<svg xmlns="http://www.w3.org/2000/svg" width="177" height="158" fill="none" viewBox="0 0 177 158"><path fill="#fed607" stroke="#fed607" stroke-linecap="round" stroke-miterlimit="10" d="M94.473 24.486a.35.35 0 0 1 .323.38.35.35 0 0 1-.377.327.355.355 0 0 1 .053-.707Z"/><path stroke="#002140" stroke-linecap="round" stroke-linejoin="round" d="M124.612 114.122h2.354M131.816 114.229h2.056"/><path fill="#fffaf0" d="M74.4 70.786H62.21v7.34H74.4zM86.326 92.312v.21H74.4v-7.06h11.926zM86.326 63.45H74.4v7.336h11.926zM74.4 41.436H62.21v7.337H74.4zM86.326 48.773H74.4v7.336h11.926zM74.4 56.11H62.21v7.34H74.4z"/><path fill="#fffaf0" d="M86.326 78.126H74.4v7.337h11.926zM86.326 34.263v7.173H74.4v-7.34h11.926zM86.326 70.786H74.4v7.34h11.926z"/><path fill="#5be3aa" d="M105.636 20.383V96.55a5.234 5.234 0 0 1-5.233 5.237h-51.91a5.235 5.235 0 0 1-5.236-5.237V20.383a5.234 5.234 0 0 1 5.236-5.233h51.91a5.233 5.233 0 0 1 5.233 5.233m-8.013 72.14V26.53H51.506v65.992zM50.566 22.656V19.01h-3.65v3.646z"/><path fill="#fffaf0" d="M74.4 78.126H62.21v7.337H74.4zM86.326 56.11H74.4v7.34h11.926zM62.21 34.096H74.4v7.34H62.21v-7.34"/><path fill="#fffaf0" d="M62.21 85.462H74.4v7.06H62.21v-7.06M86.326 41.436H74.4v7.337h11.926zM74.4 63.45H62.21v7.336H74.4zM74.4 48.773H62.21v7.336H74.4z"/><path fill="#99f6ff" d="M97.623 26.53v7.566H51.506V26.53h46.117"/><path fill="#fffaf0" d="M51.896 63.45H62.21v7.336H51.506v-7.337zM51.896 85.462H62.21v7.06H51.506v-7.06zM51.896 41.436H62.21v7.337H51.506v-7.337z"/><path fill="#fffaf0" d="M62.21 85.463H51.506v-7.337H62.21zM62.21 63.45H51.506v-7.34H62.21zM62.21 41.436H51.506v-7.34H62.21v7.34"/><path fill="#fffaf0" d="M51.896 70.786H62.21v7.34H51.506v-7.34zM51.896 48.773H62.21v7.336H51.506v-7.336zM86.326 85.462h11.297v7.06H86.326v-7.06M97.346 56.11h-11.02v-7.337h11.297v7.336zM97.346 78.126h-11.02v-7.34h11.297v7.34zM86.326 56.11h11.297v7.34H86.326z"/><path fill="#fffaf0" d="M97.346 85.463h-11.02v-7.337h11.297v7.337zM86.326 34.096h11.297v7.34H86.326v-7.34M86.326 63.45h11.297v7.336H86.326zM97.346 48.773h-11.02v-7.337h11.297v7.337z"/><path fill="#99f6ff" d="M172.492 84.766c3.216 5.606 3.843 12.033 2.213 17.29l-.057-.02c-1.136-3.76-6.273-5.664-10.736-3.604l-.04-.023c1.2-2.013 1.263-5.03-.133-7.943.64-2.914 4.916-6.244 8.753-5.7"/><path fill="#99f6ff" d="m174.648 102.036.057.02c-1.433 4.63-4.617 8.35-9.316 9.806-.707.217-2.934.557-3.734.557l-.116-.06c1.463-2.843 1.53-9.247-.927-11.79l.657-.03c1.123-.37 2.003-1.123 2.603-2.13l.04.023c4.463-2.06 9.6-.156 10.736 3.604M172.492 84.766c-3.837-.544-8.113 2.786-8.753 5.7-1.367-2.85-4.127-5.597-8.59-7.21v-.014c3.416 0 6.24-6.47 4.71-9.173l.023-.056c5.927 2.423 10.073 6.333 12.61 10.753"/><path fill="#50eef6" d="M160.612 100.569c2.457 2.543 2.39 8.946.927 11.79-.217.42-.467.763-.74 1.003h-6c2.02-1.77 2.48-9.076.103-12.31a4.3 4.3 0 0 0-.69-.75h6.117c.096.084.193.174.283.267"/><path fill="#99f6ff" d="M159.859 74.07c1.53 2.703-1.294 9.172-4.707 9.172v.014c-2.527-.914-5.59-1.464-9.253-1.464h-1.1v-.146c2.236-2.403 2.706-7.814-.587-10.117v-.09h1.37c5.593 0 10.343.954 14.3 2.574z"/><path fill="#4ba6a6" d="M144.682 103.232v-.223c0-1.647-1.53-3.413-4.117-3.413v-.587h.94s.824-1.53 2.117-1.53h6.47c1.413 0 2.59 3.127 2.943 3.48s1.764.167 1.764.167l.103-.074c2.377 3.234 1.917 10.54-.103 12.31-1.41 1.88-4.234 2.94-6.587 2.94h-7.647v-13.06h.117z"/><path fill="#99f6ff" d="M144.212 71.53c3.293 2.302 2.823 7.713.587 10.116v.146h-13.06v-.146c2.473-2.52 2.473-7.697-.587-10.117v-.09h13.06z"/><path fill="#fffaf0" d="M144.682 103.009v.223l-4 .01h-.117v-3.646c2.587 0 4.117 1.766 4.117 3.413M140.566 96.102c-.25.72-1.254 1.377-2.774 1.89l-.053-.16c-2.47-2.47-12.703-3.06-17.173-.236l-.074.193c-1.306-.517-2.126-1.153-2.26-1.843a1 1 0 0 1-.02-.2c0-1.867 5.017-3.38 11.207-3.38s11.207 1.513 11.207 3.38q0 .181-.06.356"/><path fill="#fffaf0" d="M140.566 116.302v1.763c0 7.53-22.354 6.59-22.354.237V95.949h.02c.134.687.954 1.323 2.26 1.84 2.047.813 5.284 1.337 8.927 1.337 3.33 0 6.323-.44 8.373-1.134 1.52-.513 2.524-1.17 2.774-1.89zm-4.8-10.11c1.116-1.786 1.306-3.51-.347-3.78-2.327-.376-2.903 1.757-2.903 1.757s-.714-2.363-2.874-1.787c-1.673.447-1.47 2.12-.576 3.574.893 1.45 3.463 4.019 3.463 4.019s2.443-2.513 3.237-3.783"/><path fill="#780505" d="m137.739 97.832.053.16c-2.05.694-5.043 1.134-8.373 1.134-3.643 0-6.88-.524-8.927-1.337l.074-.193c4.47-2.824 14.703-2.234 17.173.236"/><path fill="#f68dfe" d="M135.419 102.412c1.653.27 1.463 1.993.347 3.78-.794 1.27-3.237 3.783-3.237 3.783s-2.57-2.57-3.463-4.02c-.894-1.453-1.097-3.126.576-3.573 2.16-.577 2.874 1.787 2.874 1.787s.576-2.134 2.903-1.757"/><path fill="#99f6ff" d="M131.152 71.53c3.06 2.42 3.06 7.596.587 10.116v.146h-14.823v-.146c2-2.52 2.236-7.66-.587-10.117v-.09h14.823z"/><path fill="#4ba6a6" d="M126.329 146.539c0 2.503.117 5.063.117 6.463 0 1.883-.587 4.08-2.94 4.08H52.093c-.613 0-1.43.043-2.377-.043l.027-.31v-12.19l.24-.114c1.337 1.234 3.387 2.23 6.7 2.23h64.823c1.586 0 4.81-.983 4.306-3.786.584 2.05.517 3.54.517 3.67m-59.353 4.776a2.411 2.411 0 1 0-2.41 2.414 2.41 2.41 0 0 0 2.41-2.414m-7.233 0c0-1.33-1.08-2.41-2.413-2.41a2.412 2.412 0 1 0 0 4.824 2.413 2.413 0 0 0 2.413-2.414"/><path fill="#50eef6" d="M110.139 140.302h3.47c1.917 0 3.143-2.04 2.25-3.74l-.723-1.543-2.504-5.34-2.613-5.584-1.557-3.323c-.633-1.207-2.546-1.96-3.906-1.957h-3.207l-6.93.007-6.703.007h-7.037l-7.036.01h-6.787l-6.866.01h-7.037l-4.057.006c-1.726 0-2.91 1.744-2.276 3.354l.78 1.983 2.17 5.513 2.17 5.517.94 2.39a4.235 4.235 0 0 0 3.943 2.69zm15.673 2.566c.504 2.804-2.72 3.787-4.306 3.787H56.683c-3.313 0-5.363-.997-6.7-2.23-1.177-1.087-1.8-2.363-2.24-3.3-.943-2-10.473-27.06-10.473-27.06h73.529l.177-.05c.27.404.45.717.53.877.383.767 10.026 18.29 13.53 25.88.34.736.59 1.443.776 2.093z"/><path fill="#99f6ff" d="M116.329 71.53c2.823 2.456 2.587 7.596.587 10.116v.146h-5.837V71.44h5.25zM115.859 136.562c.893 1.7-.333 3.74-2.25 3.74h-3.47l-2.117-5.133h6.797l.317-.15z"/><path fill="#99f6ff" d="m112.632 129.679 2.504 5.34-.317.15h-6.797l-2.259-5.49zM110.019 124.095l2.613 5.584h-6.869l-2.264-5.49h6.32z"/><path fill="#4ed7de" d="M110.999 15.396q.08.561.08 1.14v83.86a8.28 8.28 0 0 1-8.276 8.276H46.09a8.271 8.271 0 0 1-8.273-8.276v-83.86a8.27 8.27 0 0 1 8.273-8.273h56.713a8.27 8.27 0 0 1 8.196 7.133m-5.363 81.153V20.383a5.233 5.233 0 0 0-5.233-5.233h-51.91a5.234 5.234 0 0 0-5.236 5.233V96.55a5.235 5.235 0 0 0 5.236 5.237h51.91a5.234 5.234 0 0 0 5.233-5.237"/><path fill="#50eef6" d="m41.13 107.042.01-.013a8.25 8.25 0 0 0 4.95 1.643h56.713c.686 0 1.353-.083 1.99-.243l.006.03s2.337 1.48 4.117 3.136a14.8 14.8 0 0 1 2.06 2.42l-.177.05h-73.53l-13.526-11.526-.01-.013c2.477-2.24 7.22-1.597 9.807-1.597l.04-.047a183 183 0 0 0 7.55 6.16"/><path fill="#99f6ff" d="m108.023 135.169 2.116 5.133h-7.223l-2.057-5.133zM108.463 120.772l1.556 3.324-.2.093h-6.32l-2.15-5.22v-.15h3.207c1.36-.007 3.273.747 3.907 1.953"/><path fill="#4ba6a6" d="M110.999 15.397a8.27 8.27 0 0 0-8.196-7.134H46.09a8.27 8.27 0 0 0-8.274 8.274v83.859a8.27 8.27 0 0 0 3.324 6.633l-.01.013a183 183 0 0 1-7.55-6.16 240 240 0 0 1-3.997-3.51c-2.773-2.49-3.11-4.776-3.11-9.716V13.103C26.473 6.377 31.927.92 38.657.92h48.576c3.466 0 7.293-.303 10.973 2.05 6.146 3.93 12.73 7.3 12.793 12.426"/><path fill="#99f6ff" d="m105.763 129.679 2.259 5.49h-7.163l-2.2-5.49zM103.499 124.189l2.264 5.49h-7.104l-2.2-5.49zM101.349 118.969l2.15 5.22h-7.04l-2.04-5.093v-.274l6.93-.003zM100.859 135.169l2.057 5.133H68.323v-.19l-1.95-4.943h34.486"/><path fill="#99f6ff" d="m98.66 129.679 2.199 5.49h-6.886v-.044l-2.137-5.446zM96.46 124.189l2.2 5.49h-6.824l-2.153-5.49zM94.42 119.095l2.04 5.094h-6.777l-1.967-5.01v-.35l6.703-.007z"/><path fill="#99f6ff" d="M93.973 135.125v.044h-6.897v-.044l-2.153-5.446h6.913zM89.683 124.189l2.153 5.49h-6.913l-2.17-5.49z"/><path fill="#99f6ff" d="m87.716 119.179 1.967 5.01h-6.93l-2.074-5.24v-.117l7.037-.003zM87.076 135.125v.044h-6.983v-.127l-2.157-5.363h6.987z"/><path fill="#99f6ff" d="m82.753 124.189 2.17 5.49h-6.987l-2.21-5.49zM82.753 124.189h-7.027l-2.083-5.177v-.173l7.036-.007v.117zM80.093 135.042v.127h-6.907v-.137l-2.12-5.353h6.87z"/><path fill="#99f6ff" d="M77.936 129.679h-6.87l-2.173-5.49h6.833zM73.643 119.012l2.083 5.177h-6.833l-2.037-5.147v-.2l6.787-.003zM73.186 135.032v.137h-6.813l-2.163-5.49h6.856z"/><path fill="#99f6ff" d="m68.893 124.189 2.173 5.49H64.21l-2.167-5.49z"/><path fill="#99f6ff" d="m66.856 119.042 2.037 5.147h-6.85l-2.053-5.21v-.13l6.866-.007zM68.323 140.112v.19h-7.12v-.46l-1.853-4.673h7.023zM64.566 148.905a2.411 2.411 0 1 1-.002 4.822 2.411 2.411 0 0 1 .002-4.822"/><path fill="#99f6ff" d="m64.21 129.679 2.163 5.49H59.35l-2.177-5.49zM62.043 124.189l2.167 5.49h-7.037l-2.18-5.49zM59.99 118.979l2.053 5.21h-7.05l-2.04-5.147v-.19l7.037-.003zM61.203 139.842v.46h-4.58a4.235 4.235 0 0 1-3.943-2.69l-.94-2.39.133-.053h7.477z"/><path fill="#99f6ff" d="m57.173 129.679 2.177 5.49h-7.477l-.133.053-2.17-5.517.07-.026zM57.33 148.905a2.412 2.412 0 1 1 0 4.823 2.413 2.413 0 1 1 0-4.823"/><path fill="#99f6ff" d="M57.173 129.679H49.64l-.07.026-2.17-5.513.013-.003h7.58zM52.953 119.042l2.04 5.147H47.4l-.78-1.98c-.634-1.61.55-3.354 2.276-3.354h4.057z"/><path fill="#4ed7de" d="M50.566 19.01h-3.65v3.646h3.65z"/><path fill="#4ba6a6" d="m49.983 144.425-.24.114v12.189l-.027.31a9.56 9.56 0 0 1-4.21-1.37c-1.993-1.21-23.373-19.543-23.373-19.543v-29.389c0-1.997.624-3.327 1.6-4.21l.01.013 13.527 11.527s9.53 25.059 10.473 27.059c.44.937 1.063 2.214 2.24 3.3"/><path stroke="#002140" stroke-linecap="round" stroke-linejoin="round" d="M104.793 108.429a8.2 8.2 0 0 1-1.99.243H46.09a8.271 8.271 0 0 1-8.273-8.276v-83.86a8.27 8.27 0 0 1 8.273-8.273h56.713a8.273 8.273 0 0 1 8.276 8.273v83.86a8.28 8.28 0 0 1-6.286 8.033"/><path stroke="#002140" stroke-linecap="round" stroke-linejoin="round" d="m41.39 107.242-.26-.2a183 183 0 0 1-7.55-6.16 240 240 0 0 1-3.997-3.51c-2.773-2.49-3.11-4.776-3.11-9.716V13.103C26.473 6.377 31.927.92 38.657.92h48.576c3.466 0 7.293-.303 10.973 2.05 6.146 3.93 12.73 7.3 12.793 12.426v.167"/><path stroke="#002140" stroke-linecap="round" stroke-linejoin="round" d="M100.403 101.786h-51.91a5.235 5.235 0 0 1-5.236-5.237V20.383a5.234 5.234 0 0 1 5.236-5.233h51.91a5.233 5.233 0 0 1 5.233 5.233V96.55a5.234 5.234 0 0 1-5.233 5.237"/><path stroke="#002140" stroke-linecap="round" stroke-linejoin="round" d="M97.623 85.463v7.06H51.506V26.53h46.117v58.933M62.21 34.42v57.893M51.896 34.096h45.45M51.896 41.436h45.45M51.896 48.773h45.45M51.896 56.11h45.45M51.896 63.45h45.45M51.896 70.786h45.45M51.896 78.126h45.45M51.896 85.462h45.45M50.566 19.01h-3.65v3.646h3.65zM125.812 142.865a14.5 14.5 0 0 0-.776-2.093c-3.504-7.59-13.147-25.113-13.53-25.88-.08-.16-.26-.473-.53-.876a14.7 14.7 0 0 0-2.06-2.42c-1.78-1.657-4.117-3.137-4.117-3.137M33.54 100.929c-2.587 0-7.33-.643-9.807 1.597-.976.883-1.6 2.213-1.6 4.209v29.39s21.38 18.333 23.374 19.543c1.53.93 2.98 1.26 4.21 1.37.946.087 1.763.044 2.376.044h71.413c2.353 0 2.94-2.197 2.94-4.08 0-1.4-.117-3.96-.117-6.464 0-.13.067-1.62-.517-3.67"/><path stroke="#002140" stroke-linecap="round" stroke-linejoin="round" d="m23.743 102.539 13.527 11.527h73.529"/><path stroke="#002140" stroke-linecap="round" stroke-linejoin="round" d="M37.27 114.065s9.53 25.06 10.473 27.06c.44.937 1.063 2.213 2.24 3.3 1.337 1.233 3.387 2.23 6.7 2.23h64.823c1.586 0 4.81-.983 4.306-3.787a4 4 0 0 0-.073-.33M49.743 144.539v12.189M59.743 151.315a2.413 2.413 0 1 1-4.825 0 2.413 2.413 0 0 1 4.825 0M66.976 151.315a2.412 2.412 0 1 1-4.823.002 2.412 2.412 0 0 1 4.823-.002"/><path stroke="#002140" stroke-linecap="round" stroke-linejoin="round" d="M52.953 118.852h-4.057c-1.726 0-2.91 1.747-2.276 3.357l.78 1.983 2.17 5.513 2.17 5.517.94 2.39a4.235 4.235 0 0 0 3.943 2.69h56.986c1.917 0 3.143-2.04 2.25-3.74l-.723-1.543-2.504-5.34-2.613-5.584-1.557-3.323c-.633-1.207-2.546-1.96-3.906-1.957h-3.207l-6.93.007-6.703.007h-7.037l-7.036.01h-6.787l-6.866.01h-7.037z"/><path stroke="#002140" stroke-linecap="round" stroke-linejoin="round" d="m52.953 119.042 2.04 5.147 2.18 5.49 2.177 5.489 1.853 4.674M66.856 119.042l2.037 5.147 2.173 5.49 2.12 5.353M59.99 118.979l2.053 5.21 2.167 5.49 2.163 5.49 1.95 4.943M73.643 119.012l2.083 5.177 2.21 5.49 2.157 5.363M87.716 119.179l1.967 5.01 2.153 5.49 2.137 5.446M94.42 119.095l2.04 5.094 2.2 5.49 2.199 5.49 2.057 5.133.003.01M101.349 118.969l2.15 5.22 2.264 5.49 2.26 5.49 2.116 5.133.003.01M80.68 118.949l2.073 5.24 2.17 5.49 2.153 5.446M109.819 124.189H47.413M49.64 129.679h62.992M51.873 135.169h62.946M111.232 81.793h34.667c3.663 0 6.726.55 9.25 1.463 4.463 1.613 7.223 4.36 8.59 7.21 1.396 2.913 1.333 5.93.133 7.943-.6 1.007-1.48 1.76-2.603 2.13"/><path stroke="#002140" stroke-linecap="round" stroke-linejoin="round" d="M111.232 71.44h34.35c5.593 0 10.343.953 14.3 2.573 5.927 2.423 10.073 6.333 12.61 10.753 3.216 5.606 3.843 12.033 2.213 17.29-1.433 4.63-4.616 8.349-9.316 9.806-.707.217-2.934.557-3.734.557"/><path stroke="#002140" stroke-linecap="round" stroke-linejoin="round" d="M154.799 113.362h6c.273-.24.523-.583.74-1.003 1.463-2.844 1.53-9.247-.927-11.79a5 5 0 0 0-.283-.267h-6.117c.253.214.483.467.69.75 2.377 3.234 1.917 10.54-.103 12.31"/><path stroke="#002140" stroke-linecap="round" stroke-linejoin="round" d="M154.799 101.126s-1.41.186-1.764-.167c-.353-.353-1.53-3.48-2.943-3.48h-6.47c-1.293 0-2.117 1.53-2.117 1.53M140.745 116.302h7.467c2.353 0 5.177-1.06 6.587-2.94M140.565 99.596c2.587 0 4.117 1.766 4.117 3.413M140.682 103.242l4-.01 2.233-.006M140.682 106.499l6.233-.02M140.682 109.752l6.233-.016M140.682 113.009l6.233-.02"/><path stroke="#002140" stroke-linecap="round" stroke-linejoin="round" d="M118.212 95.949v22.353c0 6.353 22.354 7.293 22.354-.237v-22.32"/><path stroke="#002140" stroke-linecap="round" stroke-linejoin="round" d="M118.232 95.946a1 1 0 0 1-.02-.2c0-1.867 5.017-3.38 11.207-3.38s11.207 1.513 11.207 3.38q0 .181-.06.356c-.25.72-1.254 1.377-2.774 1.89-2.05.694-5.043 1.134-8.373 1.134-3.643 0-6.88-.524-8.927-1.337-1.306-.517-2.126-1.153-2.26-1.843"/><path stroke="#002140" stroke-linecap="round" stroke-linejoin="round" d="M120.566 97.596c4.47-2.824 14.703-2.234 17.173.236M116.329 71.53c2.823 2.456 2.587 7.596.587 10.116M131.152 71.53c3.06 2.42 3.06 7.596.587 10.116M144.212 71.53c3.293 2.303 2.823 7.713.587 10.116M163.912 98.432c4.463-2.06 9.6-.156 10.736 3.604M163.722 90.539a1 1 0 0 1 .017-.073c.64-2.914 4.916-6.244 8.753-5.7a.3.3 0 0 1 .053.006M155.152 83.243c3.413 0 6.237-6.47 4.707-9.174M123.672 102.539v6.94M122.442 102.169c.354 0 2.344.167 2.344.167M122.496 109.549l2.47.166M132.516 104.169s-.714-2.364-2.874-1.787c-1.673.447-1.47 2.12-.576 3.573.893 1.45 3.463 4.02 3.463 4.02s2.443-2.513 3.237-3.783c1.116-1.787 1.306-3.51-.347-3.78-2.327-.377-2.903 1.757-2.903 1.757M120.079 115.279v-3.767l1.43 2.354 1.49-2.104v3.967M124.589 116.062v-3.9h2.417v3.9M128.352 112.496h2.04M129.379 112.496v3.9M131.759 112.412v3.9M133.869 112.412v3.9M138.132 111.909h-2.666v1.707h2.589v2.293h-2.666M74.4 34.263v58.049M86.326 34.263v58.049"/><path fill="#4ba6a6" d="M57.84 124.772c.696.34 1.196.967 1.196 1.48 0 1.297.117 2.133.117 4.017 0 1.883-.623 3.093-1.917 3.093H52.33c-1.884 0-1.884-1.57-1.764-2.63l-.266-.03c-3.137.797-7.023.31-8.557-1.223l-.1-.084c.787-1.27 1.337-3.46 1.273-6.386-.07-3.214-.966-5.184-1.836-6.25l.427-.104c.94-.823 2.353-3.646 4.94-3.763 2.59-.12 4.12 0 5.646 0 1.527 0 2 2.234 2.12 2.704v.323h5.93c2.59 0 4.803 1.646 4.803 3.883v8.94c0 1.883-3.626 2.12-3.626-.47s-.117-4.53-.117-5.823-.443-2.49-1.737-2.49H57q.141.502.143 1.176l-.92.34c1.41 0 2.193 1.017 2.193 3.294h-.576z"/><path fill="#50eef6" d="M42.917 123.009c.063 2.926-.487 5.116-1.274 6.386-.507.824-1.117 1.26-1.717 1.26-1.526 0-5.386.41-6.15-.353-.766-.763-1.09-1.883-1.09-1.883v-.037h1.78c2.667-3.61 1.884-8.787-.313-10.827h-1.74v-.13c.387-1.426.94-1.779 2.237-1.779s4.267.07 4.973.07c.287 0 .864.31 1.457 1.043.87 1.066 1.767 3.036 1.837 6.25"/><path fill="#99f6ff" d="M34.153 117.555c2.197 2.04 2.98 7.217.314 10.827h-10.89v-.197c2.47-2.47 2.87-8.236.283-10.47v-.16zM30.447 71.283c4.236 1.883 3.866 9.203-.054 10.51H18.33v-.077c1.93-2.127 3.037-7.267-.587-10.307v-.126z"/><path fill="#99f6ff" d="M23.86 117.715c2.587 2.234 2.187 8-.283 10.47v.197H12.093c-4.656 0-7.416-1.993-8.956-4.307l.017-.01c2.823 1.297 10.353-1.293 11.06-6.94l.023-.09c.983.644 2.243.52 3.346.52h6.277zM17.743 71.41c3.624 3.04 2.517 8.18.587 10.306v.077h-1.373c-2.367 0-3.517.633-4.03 1.946l-.36-.023c-2.473-3.413-8.59-2.943-10.943-.353h-.197v-2.667c0-6.12 4.08-9.413 9.883-9.413h6.433z"/><path fill="#99f6ff" d="m14.237 117.036-.024.09c-.706 5.646-8.236 8.236-11.06 6.939l-.016.01c-1.263-1.896-1.71-4.006-1.71-5.419v-9.294h11.14v2.644c0 3.003.7 4.393 1.67 5.03M12.567 83.716l.36.023c-.267.687-.36 1.56-.36 2.627v9.23h-.237c-2-1.527-8.353-1.764-10.706-.354h-.197v-11.88h.197c2.353-2.59 8.47-3.06 10.943.354"/><path fill="#99f6ff" d="M12.567 95.596v13.766H1.427v-14.12h.197c2.353-1.41 8.706-1.173 10.706.354z"/><path stroke="#002140" stroke-linecap="round" stroke-linejoin="round" d="M30.393 81.793H16.957c-2.367 0-3.517.633-4.03 1.946-.267.687-.36 1.56-.36 2.627v25.64c0 3.003.7 4.393 1.67 5.03.983.643 2.243.52 3.346.52h16.57c2.197 2.04 2.98 7.216.314 10.826H12.093c-4.656 0-7.416-1.993-8.956-4.306-1.263-1.897-1.71-4.007-1.71-5.42v-37.96c0-6.12 4.08-9.413 9.883-9.413h19.137"/><path stroke="#002140" stroke-linecap="round" stroke-linejoin="round" d="M30.447 71.283c4.236 1.883 3.866 9.203-.054 10.51M32.413 117.425c.387-1.426.94-1.779 2.237-1.779s4.267.07 4.973.07c.287 0 .864.31 1.457 1.043.87 1.066 1.767 3.036 1.837 6.25.063 2.926-.487 5.116-1.274 6.386-.507.824-1.117 1.26-1.717 1.26-1.526 0-5.386.41-6.15-.353-.766-.763-1.09-1.883-1.09-1.883M17.743 71.41c3.624 3.04 2.517 8.18.587 10.306M1.624 83.362c2.353-2.59 8.47-3.06 10.943.354M1.624 95.242c2.353-1.41 8.706-1.173 10.706.354M1.624 109.362h10.47M3.154 124.065c2.823 1.297 10.353-1.293 11.06-6.94M23.86 117.715c2.587 2.234 2.187 8-.283 10.47M41.507 116.655c.94-.823 2.353-3.646 4.94-3.763 2.59-.12 4.12 0 5.646 0 1.527 0 2 2.234 2.12 2.704"/><path stroke="#002140" stroke-linecap="round" stroke-linejoin="round" d="M48.85 115.919h11.293c2.59 0 4.803 1.646 4.803 3.883v8.94c0 1.883-3.626 2.12-3.626-.47s-.117-4.53-.117-5.823-.443-2.49-1.737-2.49H57.1M41.743 129.479c1.533 1.533 5.42 2.02 8.557 1.223.966-.247 1.863-.613 2.596-1.107.537-.36.99-.793 1.317-1.293"/><path stroke="#002140" stroke-linecap="round" stroke-linejoin="round" d="M50.566 130.732c-.12 1.06-.12 2.63 1.764 2.63h4.906c1.294 0 1.917-1.213 1.917-3.093s-.117-2.72-.117-4.017c0-.513-.5-1.14-1.196-1.48a2.4 2.4 0 0 0-1.04-.25c-1.177 0-3.884.12-3.884.12M51.91 121.475h4.313c1.41 0 2.193 1.017 2.193 3.294M50.633 118.459h4.313c1.06 0 1.767.5 2.054 1.503q.141.499.143 1.173M52.85 129.595h3.243M124.612 114.122h2.354M131.839 114.259l1.95.053"/></svg>