<svg xmlns="http://www.w3.org/2000/svg" xml:space="preserve" id="Layer_1" x="0" y="0" viewBox="0 0 201 164"><style>.st0{fill:#e4bc07}.st2{fill:#4ed7de}.st3{fill:#0676de}.st4{fill:#fff4ea}.st5{fill:#002140}.st6{fill:none;stroke:#002140;stroke-linecap:round;stroke-linejoin:round}</style><path d="M62.9 133s-8.7-2.3-8.9 3.6c.3 1.9 3.1 3.6 3.1 3.6l-.4 2.1s1.1 4 6.7 3.8c5.5-.2 6.5-4.5 5.9-6.3-.1-.1 3.6-6.4-6.4-6.8M87.8 152.2c4.8 0 8.8-2.4 8.8-5.4s-3.9-5.4-8.8-5.4c-4.8 0-8.8 2.4-8.8 5.4s3.9 5.4 8.8 5.4" class="st0"/><path d="M87.7 156.6c3.4 0 6.1-1.8 6.1-3.9 0-2.2-2.7-3.9-6.1-3.9s-6.1 1.8-6.1 3.9 2.8 3.9 6.1 3.9M135.6 135.2c4.8 0 8.8-2.4 8.8-5.4s-3.9-5.4-8.8-5.4c-4.8 0-8.8 2.4-8.8 5.4s3.9 5.4 8.8 5.4" class="st0"/><path d="M135.6 139.6c3.4 0 6.1-1.8 6.1-3.9 0-2.2-2.7-3.9-6.1-3.9s-6.1 1.8-6.1 3.9 2.7 3.9 6.1 3.9" class="st0"/><path d="M52.1 58.5V122s1.1 7.8 4.9 10.7c1.1.9 3.5 3.8 3.5 3.8l19.2 9.3s4.9 2.4 15.3-.9 47.7-18 47.7-18 7.5-4.2 7.5-15.8V51.2l-53.9-1.6z" style="fill:#0185ff"/><path d="m56.5 47.6-5.8 2.1s-2.2 1.5-2.2 3.6.6 3.1 3.6 5.3l31.7 15.8s2.7.7 5.8-.4 61.7-23.2 61.7-23.2 1.5-1.9 1.3-3.4c-.1-1.5-1.3-3.3-1.8-3.6-.4-.3-7.7-3.3-7.7-3.3s1.9-8-7-11.4c-5.2-2.7-7.8-3.4-7.8-3.4s1.3-7.1-4.6-13c-5.8-6.1-12.5-6.7-18.7-5-6.2 1.6-25.6 9.2-25.6 9.2s-7.5 2.9-9 10.2l-1.5 7.3-7.8 2.8c0-.1-4.6 2.4-4.6 10.4" class="st0"/><path d="m75.3 32.2 6.5 12 9.3-7.1-6.4-12.7zM107.1 18.2 101 30.6l9.3 7.7 6.2-13.2z" class="st2"/><path d="M94.1 77.6s-2.2.9-2.2 4.1v53.1s.3 4.6 5.5 3.3 42-15.2 42-15.2l1.8-2.5 4.9-9-.3-2.4V63.1l-2.2-3.1H141zM81.2 80.6s.1-3-1.5-3.8c-1.6-.9-19.8-9.5-19.8-9.5s-2.5-.3-2.8 2.1-.1 52.2-.1 52.2l5 9 3.4 1.8 12.4 5.2 2.7.1 1-1.8z" class="st3"/><path d="M106.2 105.4s-1-4.7-.1-7.3c.9-2.7 1.8-10 1.4-11.8-.3-1.8-1.4-4.8-4.9-4.4-3.4.3-5 2.6-5.1 4.4s-.1 2.3 0 3.6c.1 1.2 1.9 7.2 2 8.2s.3 7.4.3 7.4l3.8.7zM97.5 109.9s-3.8 2.8-6.6 3.1-9.8 2.5-11.3 3.5-3.8 3.3-2.1 6.3 4.4 3.5 6.1 2.8c1.7-.6 2.2-.9 3.2-1.5 1.1-.6 5.8-4.7 6.7-5.2s6.6-3.3 6.6-3.3l-.9-3.7zM104.3 116.9s4.1 2.5 5.4 5 6 8.2 7.5 9.2 4.4 2.3 6.6-.5c2.1-2.7 1.6-5.4.3-6.8-1.2-1.4-1.6-1.7-2.6-2.5s-6.5-3.6-7.3-4.2-5.6-4.9-5.6-4.9l-3.1 2.3z" class="st2"/><path d="M103 116.3c3.1 0 5.5-2.6 5.5-5.8s-2.5-5.8-5.5-5.8c-3.1 0-5.5 2.6-5.5 5.8s2.5 5.8 5.5 5.8" class="st4"/><path d="M103.4 113.1c1.3 0 2.4-1.1 2.4-2.4s-1.1-2.4-2.4-2.4-2.4 1.1-2.4 2.4 1.1 2.4 2.4 2.4M129 109.4c7 0 12.6-8.3 12.6-18.5s-5.7-18.5-12.6-18.5-12.6 8.3-12.6 18.5 5.6 18.5 12.6 18.5" class="st2"/><path d="M137.4 100c2.9 0 5.2-3.5 5.2-7.7 0-4.3-2.3-7.7-5.2-7.7s-5.2 3.5-5.2 7.7 2.4 7.7 5.2 7.7M103.7 112.8c1.4 0 2.5-1 2.5-2.3s-1.1-2.3-2.5-2.3-2.5 1-2.5 2.3c.1 1.3 1.2 2.3 2.5 2.3" class="st4"/><path d="M123.6 72.9s-6.1 1.2-9.6 11.8 2.2 24.4 12.7 24.9c0 0-11.8-3.3-10.3-23.6 0-.3.3-.8.3-.8s3-9 6.9-12.3M136.7 84.3l-4-.6s-3.6 1.5-4.3 5.3 1.6 9.9 3.3 10.2l4.1.6s-3.6-2.4-3-9.9c.7-3.6 3.9-5.6 3.9-5.6" class="st5"/><path d="M138.1 95.2c1.2 0 2.1-1.5 2.1-3.3s-1-3.3-2.1-3.3c-1.2 0-2.1 1.5-2.1 3.3-.1 1.9.9 3.3 2.1 3.3" class="st5"/><path d="M52.1 58.7v61.9c0 6.7 3.7 12.7 9.7 15.8l16.5 8.4c4.4 2.2 9.5 2.5 14.1.9l45.9-16.8c7-2.6 11.6-9.2 11.6-16.6V51.2" class="st6"/><path d="m56.7 47.5-5.4 2c-3.7 1.3-4 6.4-.5 8.1l33.3 16.5c1.1.5 2.4.6 3.5.2l62.1-23c3.8-1.4 3.9-6.8 0-8.3l-6.5-2.5" class="st6"/><path d="m68.9 34.3-6 2.2c-7.9 2.9-8.6 13.9-1 17.6l20.5 10.1c2.4 1.2 5.1 1.3 7.6.4l47-17.4c8.3-3.1 8.4-14.8.1-18l-8.7-3.3M110.8 6.6c-2.1 0-4.2.3-6.2 1.1l-22.2 8" class="st6"/><path d="m82.4 15.7-1.6.6C66.1 21.6 65 41.9 79 48.8l.3.1c4.4 2.2 9.4 2.4 14 .7l23.6-8.7c15.3-5.7 15.4-27.3.1-33.2-2-.8-4.1-1.1-6.2-1.2M86.7 113.5V74.6M86.7 146.4V124M95.8 144.7c.5.7.8 1.4.8 2.2 0 2.9-4 5.2-9 5.2s-9-2.3-9-5.2c0-.4.1-.7.2-1.1" class="st6"/><path d="M93.6 151.1c.2.4.3.9.3 1.3 0 2.5-2.8 4.5-6.2 4.5s-6.2-2-6.2-4.5c0-.5.1-1.1.4-1.5M141.4 133.8c.2.4.3.9.3 1.3 0 2.5-2.8 4.5-6.2 4.5s-6.2-2-6.2-4.5c0-.5.1-1.1.4-1.5" class="st6"/><path d="M142.9 126.7c1.1.8 1.7 1.9 1.7 3 0 2.8-4.1 5.1-9.1 5.1-2.9 0-5.5-.8-7.2-2M68.9 140.3c.2.4.3.9.3 1.3 0 2.5-2.8 4.5-6.2 4.5s-6.2-2-6.2-4.5c0-.5.1-1.1.4-1.5" class="st6"/><path d="M68.8 140.1c-1.6.7-3.5 1.1-5.7 1.1-5 0-9.1-2.3-9.1-5.1 0-1.4 1-2.7 2.7-3.6M81.4 115.1l-.2-36.3c0-.9-.5-1.7-1.4-2.1l-19.4-9.2c-1.6-.8-3.5.4-3.5 2.1l-.1 51.7c0 .4.1.9.4 1.2l4.7 7.5c.3.4.6.7 1.1.9l15.1 6.6c1.6.7 3.5-.4 3.5-2.2v-9.7M125.2 128.1l13-4.6c.8-.3 1.6-.9 2-1.7l5.1-9.3c.3-.5.4-1.1.4-1.8V63.4c0-2.6-2.6-4.3-5-3.4L94.1 77.6c-1.4.5-2.4 1.9-2.4 3.4v31.2M91.7 120.2v14.7c0 2.5 2.5 4.3 4.9 3.5l20.1-7.1" class="st6"/><path d="M100 105.2c0-10.9-2.7-11.7-2.7-17.1s3.1-6.5 5.5-6.5 4.7 1.7 4.7 6.9-2.6 9.8-1.7 16.6M99.6 115.5c-10 4.4-9.6 7.1-14.5 9.3s-7.2-.2-8.1-2.5c-1-2.2-.4-5 4.4-7.1s10-1.6 15.9-5.2M108.8 112.3c7.7 7.8 10.1 6.4 13.9 10.2s2.3 6.8.6 8.5-4.5 2.1-8.2-1.6-5.1-8.7-10.5-13" class="st6"/><path d="M103.1 116.5c3.2 0 5.7-2.7 5.7-6s-2.6-6-5.7-6c-3.2 0-5.7 2.7-5.7 6 0 3.4 2.5 6 5.7 6" class="st6"/><path d="M103.7 113.2c1.5 0 2.7-1.2 2.7-2.7s-1.2-2.7-2.7-2.7-2.7 1.2-2.7 2.7 1.2 2.7 2.7 2.7M140.1 99.6c-2.4 6-7.2 10.1-12.6 10.1-7.9 0-14.3-8.4-14.3-18.8s6.4-18.8 14.3-18.8c6.7 0 12.3 6 13.8 14.2" class="st6"/><path d="M129.1 109.4c-7.3 0-12.6-9-12.6-18.6 0-9.1 5.1-18.7 11.3-18.7" class="st6"/><path d="M133.3 99.5c-2.9 0-5.2-3.5-5.2-7.9s2.3-7.9 5.2-7.9" class="st6"/><path d="M137.7 100.2c2.9 0 5.2-3.5 5.2-7.9s-2.3-7.9-5.2-7.9-5.2 3.5-5.2 7.9c.1 4.3 2.4 7.9 5.2 7.9" class="st6"/><path d="M138 95.6c1.3 0 2.3-1.6 2.3-3.5s-1-3.5-2.3-3.5-2.3 1.6-2.3 3.5 1 3.5 2.3 3.5M137.7 84.3l-4.5-.6M136.8 100l-4.5-.6M117.9 96.8l4.6-1.8M128.6 78l-2.1-5.7M125.3 108.1l1.6-4.5M122.8 85l-4.8-.8M124.9 81l-4-3.6M121.6 90.3l-4.8.6M123.4 100.6l-3.1 3.4M131.6 103.5l.5 5.1M136.1 102.1l.6 2.3M132.4 79.2l1.4-4.5M136.1 81.9l3-1.1M107.2 17.5l-6.4 13.2 9.4 7.5 6.7-12.9z" class="st6"/><path d="m107.2 17.5 4 10.2-1.1 10.5M100.7 30.7l16.1-5.4M85 24l6.4 13.2-9.4 7.5-6.7-12.9z" class="st6"/><path d="m85 24-4 10.2 1 10.5M91.4 37.1l-16.1-5.4" class="st6"/><path d="M64.3 50.6c1.7 0 3-1.4 3-3.2 0-1.7-1.3-3.2-3-3.2s-3 1.4-3 3.2 1.4 3.2 3 3.2M74.4 56.7c1.7 0 3-1.4 3-3.2 0-1.7-1.3-3.2-3-3.2s-3 1.4-3 3.2 1.3 3.2 3 3.2M86.7 61.1c1.7 0 3-1.4 3-3.2 0-1.7-1.3-3.2-3-3.2s-3 1.4-3 3.2 1.3 3.2 3 3.2M99.6 57.7c1.7 0 3-1.4 3-3.2s-1.3-3.2-3-3.2-3 1.4-3 3.2 1.4 3.2 3 3.2M112 53c1.7 0 3-1.4 3-3.2 0-1.7-1.3-3.2-3-3.2s-3 1.4-3 3.2 1.3 3.2 3 3.2M123.6 48.5c1.7 0 3-1.4 3-3.2 0-1.7-1.3-3.2-3-3.2s-3 1.4-3 3.2c.1 1.8 1.4 3.2 3 3.2M133.8 44.3c1.7 0 3-1.4 3-3.2 0-1.7-1.3-3.2-3-3.2s-3 1.4-3 3.2 1.4 3.2 3 3.2" class="st5"/></svg>